<svg xmlns="http://www.w3.org/2000/svg" xmlns:xlink="http://www.w3.org/1999/xlink" width="500" zoomAndPan="magnify" viewBox="0 0 375 374.999991" height="500" preserveAspectRatio="xMidYMid meet" version="1.0"><path fill="#5271ff" d="M 131.25 0 L 37.5 0 C 16.820312 0 0 16.820312 0 37.5 L 0 168.75 C 0 189.429688 16.820312 206.25 37.5 206.25 L 131.25 206.25 C 151.929688 206.25 168.75 189.429688 168.75 168.75 L 168.75 37.5 C 168.75 16.820312 151.929688 0 131.25 0 Z M 337.5 0 L 243.75 0 C 223.070312 0 206.25 16.820312 206.25 37.5 L 206.25 93.75 C 206.25 114.429688 223.070312 131.25 243.75 131.25 L 337.5 131.25 C 358.179688 131.25 375 114.429688 375 93.75 L 375 37.5 C 375 16.820312 358.179688 0 337.5 0 Z M 131.25 243.75 L 37.5 243.75 C 16.820312 243.75 0 260.570312 0 281.25 L 0 337.5 C 0 358.179688 16.820312 375 37.5 375 L 131.25 375 C 151.929688 375 168.75 358.179688 168.75 337.5 L 168.75 281.25 C 168.75 260.570312 151.929688 243.75 131.25 243.75 Z M 337.5 168.75 L 243.75 168.75 C 223.070312 168.75 206.25 185.570312 206.25 206.25 L 206.25 337.5 C 206.25 358.179688 223.070312 375 243.75 375 L 337.5 375 C 358.179688 375 375 358.179688 375 337.5 L 375 206.25 C 375 185.570312 358.179688 168.75 337.5 168.75 Z M 337.5 168.75 " fill-opacity="1" fill-rule="nonzero"/></svg>