<svg xmlns="http://www.w3.org/2000/svg" xmlns:xlink="http://www.w3.org/1999/xlink" width="500" zoomAndPan="magnify" viewBox="0 0 375 374.999991" height="500" preserveAspectRatio="xMidYMid meet" version="1.0"><defs><clipPath id="37ef6a4b23"><path d="M 7.03125 0 L 367.78125 0 L 367.78125 375 L 7.03125 375 Z M 7.03125 0 " clip-rule="nonzero"/></clipPath></defs><g clip-path="url(#37ef6a4b23)"><path fill="#5271ff" d="M 332.710938 286.25 C 335.582031 282.246094 341.160156 281.316406 345.160156 284.1875 C 349.164062 287.058594 350.082031 292.636719 347.222656 296.640625 C 329.910156 320.78125 306.984375 340.65625 280.339844 354.347656 C 254.648438 367.550781 225.546875 375.011719 194.746094 375.011719 C 142.980469 375.011719 96.101562 354.027344 62.167969 320.101562 C 28.242188 286.175781 7.257812 239.300781 7.257812 187.523438 C 7.257812 135.761719 28.242188 88.882812 62.167969 54.945312 C 96.089844 21.019531 142.96875 0.0351562 194.746094 0.0351562 C 225.40625 0.0351562 254.398438 7.4375 280.015625 20.554688 C 306.578125 34.152344 329.46875 53.898438 346.820312 77.90625 C 349.691406 81.898438 348.785156 87.453125 344.792969 90.324219 C 340.800781 93.195312 335.246094 92.289062 332.375 88.296875 C 316.683594 66.5625 295.960938 48.6875 271.9375 36.390625 C 248.832031 24.570312 222.59375 17.898438 194.746094 17.898438 C 147.902344 17.898438 105.492188 36.878906 74.796875 67.578125 C 44.101562 98.273438 25.121094 140.679688 25.121094 187.523438 C 25.121094 234.367188 44.101562 276.777344 74.796875 307.472656 C 105.492188 338.167969 147.902344 357.148438 194.746094 357.148438 C 222.675781 357.148438 249 350.429688 272.175781 338.511719 C 296.257812 326.132812 317.015625 308.136719 332.710938 286.25 Z M 365.203125 180.886719 C 365.65625 181.328125 366.0625 181.816406 366.421875 182.351562 L 366.433594 182.375 L 366.539062 182.542969 L 366.550781 182.554688 L 366.660156 182.722656 L 366.671875 182.746094 C 367.445312 184.066406 367.898438 185.617188 367.898438 187.273438 C 367.898438 188.929688 367.445312 190.480469 366.671875 191.800781 L 366.660156 191.824219 L 366.550781 191.992188 L 366.539062 192.003906 L 366.433594 192.171875 L 366.421875 192.195312 C 366.0625 192.71875 365.65625 193.21875 365.203125 193.660156 L 305.125 253.742188 C 301.632812 257.234375 295.984375 257.234375 292.503906 253.742188 C 289.011719 250.25 289.011719 244.601562 292.503906 241.121094 L 337.429688 196.199219 L 131.171875 196.199219 C 126.238281 196.199219 122.246094 192.207031 122.246094 187.273438 C 122.246094 182.339844 126.238281 178.347656 131.171875 178.347656 L 337.429688 178.347656 L 292.503906 133.4375 C 289.011719 129.945312 289.011719 124.296875 292.503906 120.816406 C 295.996094 117.324219 301.644531 117.324219 305.125 120.816406 L 365.203125 180.898438 Z M 365.203125 180.886719 " fill-opacity="1" fill-rule="nonzero"/></g></svg>