<svg xmlns="http://www.w3.org/2000/svg" xmlns:xlink="http://www.w3.org/1999/xlink" width="500" zoomAndPan="magnify" viewBox="0 0 375 374.999991" height="500" preserveAspectRatio="xMidYMid meet" version="1.0"><path fill="#ffffff" d="M 356.855469 169.355469 C 346.835938 169.355469 338.710938 177.476562 338.710938 187.5 L 338.710938 338.710938 L 36.289062 338.710938 L 36.289062 36.289062 L 187.5 36.289062 C 197.523438 36.289062 205.644531 28.167969 205.644531 18.144531 C 205.644531 8.121094 197.523438 0 187.5 0 L 18.144531 0 C 8.121094 0 0 8.121094 0 18.144531 L 0 356.855469 C 0 366.878906 8.121094 375 18.144531 375 L 356.855469 375 C 366.871094 375 375 366.878906 375 356.855469 L 375 187.5 C 375 177.476562 366.871094 169.355469 356.855469 169.355469 Z M 356.855469 169.355469 " fill-opacity="1" fill-rule="nonzero"/><path fill="#ffffff" d="M 275.203125 77.117188 L 297.882812 77.117188 L 297.882812 99.796875 C 297.882812 109.820312 306.011719 117.945312 316.027344 117.945312 C 326.046875 117.945312 334.171875 109.820312 334.171875 99.796875 L 334.171875 77.117188 L 356.855469 77.117188 C 366.871094 77.117188 375 68.996094 375 58.972656 C 375 48.949219 366.871094 40.828125 356.855469 40.828125 L 334.171875 40.828125 L 334.171875 18.144531 C 334.171875 8.121094 326.046875 0 316.027344 0 C 306.011719 0 297.882812 8.121094 297.882812 18.144531 L 297.882812 40.828125 L 275.203125 40.828125 C 265.183594 40.828125 257.054688 48.949219 257.054688 58.972656 C 257.054688 68.996094 265.183594 77.117188 275.203125 77.117188 Z M 275.203125 77.117188 " fill-opacity="1" fill-rule="nonzero"/></svg>