<svg xmlns="http://www.w3.org/2000/svg" xmlns:xlink="http://www.w3.org/1999/xlink" width="500" zoomAndPan="magnify" viewBox="0 0 375 374.999991" height="500" preserveAspectRatio="xMidYMid meet" version="1.0"><defs><clipPath id="044e3e1855"><path d="M 4.453125 0 L 319 0 L 319 374 L 4.453125 374 Z M 4.453125 0 " clip-rule="nonzero"/></clipPath><clipPath id="4a20d88bab"><path d="M 342 164 L 370.453125 164 L 370.453125 222 L 342 222 Z M 342 164 " clip-rule="nonzero"/></clipPath></defs><g clip-path="url(#044e3e1855)"><path fill="#ffbd59" d="M 282.792969 1.277344 C 279.4375 2.296875 274.398438 7.476562 273.304688 11.125 C 271.992188 15.503906 272.210938 17.253906 274.617188 23.96875 C 275.859375 27.25 276.808594 30.023438 276.808594 30.171875 C 276.808594 30.320312 273.597656 28.785156 269.730469 26.816406 C 250.976562 17.472656 232.003906 11.710938 210.183594 8.863281 C 198.949219 7.402344 176.984375 7.402344 165.164062 8.863281 C 111.53125 15.503906 63.515625 45.789062 33.597656 91.683594 C 19.730469 112.992188 10.539062 137.65625 6.304688 164.65625 C 4.703125 175.238281 4.480469 204.644531 5.941406 214.640625 C 12.214844 256.378906 29.074219 290.605469 57.75 319.574219 C 85.914062 348.105469 121.601562 366.199219 161.515625 372.257812 C 178.953125 374.886719 209.601562 374.300781 216.679688 371.164062 C 221.859375 368.902344 225.730469 361.820312 224.707031 356.421875 C 223.976562 352.484375 220.402344 347.519531 217.261719 345.988281 C 214.128906 344.457031 213.25 344.382812 194.351562 345.257812 C 151.519531 347.15625 111.382812 331.976562 80.589844 302.207031 C 66.507812 288.558594 57.605469 276.375 49.066406 259.152344 C 37.464844 235.875 32.429688 212.085938 33.304688 185.527344 C 34.621094 145.683594 50.089844 109.855469 77.964844 81.761719 C 98.539062 61.113281 123.351562 47.101562 151.664062 40.167969 C 162.898438 37.46875 174.140625 36.226562 188.367188 36.226562 C 212.882812 36.226562 234.996094 41.191406 254.84375 51.1875 L 261.046875 54.25 L 258.199219 55.199219 C 256.667969 55.710938 253.96875 57.460938 252.21875 59.066406 C 242.074219 68.410156 248.640625 85.117188 262.433594 85.117188 C 267.246094 85.117188 309.644531 71.984375 312.929688 69.503906 C 316.652344 66.65625 318.546875 62.425781 318.546875 57.167969 C 318.546875 53.449219 317.453125 49.945312 310.007812 30.390625 C 300.8125 6.238281 299.867188 4.558594 293.957031 1.859375 C 290.816406 0.402344 286.585938 0.179688 282.792969 1.277344 Z M 282.792969 1.277344 " fill-opacity="1" fill-rule="nonzero"/></g><path fill="#ffbd59" d="M 323.363281 86.578125 C 318.328125 89.277344 314.828125 96.28125 315.847656 101.390625 C 316.136719 102.703125 318.328125 107.152344 320.808594 111.316406 C 323.21875 115.546875 326.574219 121.96875 328.328125 125.546875 C 331.609375 132.695312 334.015625 135.46875 338.25 137.21875 C 341.824219 138.75 345.109375 138.679688 348.683594 137 C 354.375 134.371094 357.074219 130.070312 357.074219 123.574219 C 357.074219 120.4375 356.273438 118.246094 352.042969 109.636719 C 344.746094 94.824219 340.511719 88.621094 336.5 86.722656 C 332.410156 84.679688 327.011719 84.679688 323.363281 86.578125 Z M 323.363281 86.578125 " fill-opacity="1" fill-rule="nonzero"/><path fill="#ffbd59" d="M 169.25 102.996094 C 165.820312 104.234375 162.390625 107.300781 161.074219 110.4375 C 160.273438 112.335938 160.054688 122.113281 160.054688 163.925781 C 160.054688 219.675781 159.910156 217.703125 164.289062 221.792969 C 165.671875 223.105469 179.246094 229.527344 202.085938 239.597656 C 233.101562 253.242188 238.277344 255.285156 241.492188 255.359375 C 254.113281 255.433594 260.246094 240.035156 251.050781 231.277344 C 249.445312 229.671875 239.667969 225 218.796875 215.878906 L 188.878906 202.746094 L 188.511719 157.578125 C 188.148438 108.101562 188.367188 110.585938 183.625 106.132812 C 179.464844 102.195312 174.574219 101.101562 169.25 102.996094 Z M 169.25 102.996094 " fill-opacity="1" fill-rule="nonzero"/><g clip-path="url(#4a20d88bab)"><path fill="#ffbd59" d="M 350.875 166.042969 C 347.515625 167.574219 344.378906 170.710938 343.355469 173.484375 C 342.921875 174.507812 342.480469 183.558594 342.335938 193.625 L 342.117188 211.941406 L 344.304688 215.078125 C 347.226562 219.238281 351.238281 221.207031 356.492188 221.207031 C 361.964844 221.136719 366.121094 218.433594 368.75 213.179688 C 370.574219 209.605469 370.574219 209.242188 370.574219 192.382812 C 370.574219 175.675781 370.5 175.164062 368.824219 172.171875 C 365.027344 165.53125 357.515625 162.976562 350.875 166.042969 Z M 350.875 166.042969 " fill-opacity="1" fill-rule="nonzero"/></g><path fill="#ffbd59" d="M 335.914062 248.644531 C 332.777344 249.886719 330.003906 253.09375 327.011719 259.152344 C 325.40625 262.363281 321.757812 268.933594 318.839844 273.746094 C 314.023438 281.773438 313.660156 282.796875 313.660156 286.515625 C 313.730469 294.105469 318.910156 299.726562 326.429688 300.234375 C 333.285156 300.746094 336.570312 298.777344 341.605469 290.96875 C 343.867188 287.539062 347.953125 280.3125 350.726562 274.914062 C 355.542969 265.5 355.761719 264.917969 355.472656 260.90625 C 354.886719 253.09375 349.269531 247.769531 341.679688 247.917969 C 339.488281 247.917969 336.933594 248.28125 335.914062 248.644531 Z M 335.914062 248.644531 " fill-opacity="1" fill-rule="nonzero"/><path fill="#ffbd59" d="M 284.617188 313.515625 C 283.519531 313.878906 279.726562 316.070312 276.222656 318.476562 C 272.71875 320.886719 266.738281 324.535156 262.945312 326.652344 C 254.773438 331.101562 253.75 331.976562 251.925781 335.550781 C 249.519531 340.222656 250.539062 347.8125 254.042969 351.679688 C 256.300781 354.234375 260.535156 355.839844 264.695312 355.839844 C 269.511719 355.839844 275.203125 353.066406 289.289062 343.796875 C 299.0625 337.375 300.960938 335.40625 302.347656 330.445312 C 305.046875 320.226562 294.832031 310.453125 284.617188 313.515625 Z M 284.617188 313.515625 " fill-opacity="1" fill-rule="nonzero"/></svg>