<svg xmlns="http://www.w3.org/2000/svg" xmlns:xlink="http://www.w3.org/1999/xlink" width="500" zoomAndPan="magnify" viewBox="0 0 375 374.999991" height="500" preserveAspectRatio="xMidYMid meet" version="1.0"><defs><clipPath id="a5703517c2"><path d="M 32 14 L 357.953125 14 L 357.953125 375 L 32 375 Z M 32 14 " clip-rule="nonzero"/></clipPath></defs><g clip-path="url(#a5703517c2)"><path fill="#b7b7b7" d="M 354.375 352.894531 L 275.882812 249.101562 C 277.886719 246.921875 279.824219 244.675781 281.6875 242.375 C 283.550781 240.070312 285.339844 237.710938 287.054688 235.292969 C 288.765625 232.875 290.402344 230.40625 291.960938 227.882812 C 293.515625 225.363281 294.992188 222.792969 296.386719 220.179688 C 297.78125 217.566406 299.089844 214.90625 300.316406 212.210938 C 301.542969 209.511719 302.683594 206.777344 303.734375 204.007812 C 304.785156 201.238281 305.75 198.4375 306.625 195.605469 C 307.5 192.773438 308.28125 189.917969 308.976562 187.035156 C 309.667969 184.15625 310.269531 181.253906 310.78125 178.335938 C 311.289062 175.417969 311.703125 172.484375 312.027344 169.539062 C 312.351562 166.59375 312.582031 163.640625 312.714844 160.679688 C 312.851562 157.71875 312.894531 154.757812 312.839844 151.792969 C 312.789062 148.832031 312.644531 145.871094 312.402344 142.917969 C 312.164062 139.964844 311.832031 137.023438 311.402344 134.089844 C 310.976562 131.15625 310.457031 128.242188 309.847656 125.34375 C 309.234375 122.441406 308.53125 119.566406 307.738281 116.710938 C 306.941406 113.855469 306.058594 111.027344 305.085938 108.230469 C 304.109375 105.429688 303.050781 102.664062 301.898438 99.933594 C 300.75 97.203125 299.515625 94.511719 298.195312 91.855469 C 296.875 89.203125 295.472656 86.59375 293.988281 84.03125 C 292.503906 81.46875 290.9375 78.953125 289.292969 76.488281 C 287.648438 74.023438 285.925781 71.613281 284.128906 69.257812 C 282.328125 66.902344 280.457031 64.605469 278.515625 62.367188 C 276.570312 60.132812 274.558594 57.957031 272.476562 55.847656 C 270.394531 53.742188 268.25 51.699219 266.035156 49.726562 C 263.824219 47.753906 261.554688 45.851562 259.222656 44.023438 C 256.890625 42.195312 254.503906 40.441406 252.058594 38.765625 C 249.617188 37.085938 247.125 35.488281 244.578125 33.972656 C 242.035156 32.453125 239.445312 31.015625 236.808594 29.660156 C 234.171875 28.304688 231.496094 27.035156 228.78125 25.851562 C 226.066406 24.667969 223.3125 23.570312 220.527344 22.558594 C 217.742188 21.546875 214.925781 20.628906 212.082031 19.796875 C 209.238281 18.964844 206.371094 18.222656 203.480469 17.574219 C 200.585938 16.925781 197.679688 16.367188 194.753906 15.902344 C 191.824219 15.4375 188.886719 15.066406 185.9375 14.785156 C 182.988281 14.507812 180.03125 14.324219 177.066406 14.230469 C 174.105469 14.140625 171.144531 14.144531 168.183594 14.242188 C 165.222656 14.335938 162.265625 14.527344 159.316406 14.8125 C 156.367188 15.097656 153.429688 15.476562 150.503906 15.945312 C 147.578125 16.417969 144.667969 16.980469 141.777344 17.636719 C 138.886719 18.292969 136.023438 19.039062 133.179688 19.875 C 130.335938 20.710938 127.523438 21.640625 124.738281 22.65625 C 121.957031 23.671875 119.207031 24.773438 116.492188 25.964844 C 113.78125 27.15625 111.105469 28.429688 108.472656 29.789062 C 105.839844 31.148438 103.253906 32.59375 100.710938 34.117188 C 98.171875 35.640625 95.679688 37.242188 93.242188 38.925781 C 90.800781 40.609375 88.417969 42.367188 86.089844 44.199219 C 83.761719 46.03125 81.492188 47.9375 79.285156 49.914062 C 77.078125 51.894531 74.9375 53.9375 72.859375 56.050781 C 70.78125 58.164062 68.773438 60.339844 66.832031 62.582031 C 64.894531 64.824219 63.027344 67.125 61.234375 69.480469 C 59.441406 71.839844 57.726562 74.253906 56.085938 76.722656 C 54.445312 79.191406 52.882812 81.707031 51.402344 84.277344 C 49.921875 86.84375 48.527344 89.453125 47.210938 92.109375 C 45.898438 94.765625 44.667969 97.460938 43.523438 100.195312 C 42.378906 102.929688 41.324219 105.695312 40.355469 108.496094 C 39.386719 111.296875 38.511719 114.125 37.722656 116.984375 C 36.933594 119.839844 36.234375 122.71875 35.628906 125.617188 C 35.023438 128.519531 34.511719 131.4375 34.089844 134.371094 C 33.667969 137.304688 33.339844 140.246094 33.109375 143.203125 C 32.875 146.15625 32.734375 149.113281 32.6875 152.078125 C 32.640625 155.039062 32.6875 158 32.832031 160.960938 C 32.972656 163.921875 33.207031 166.875 33.535156 169.820312 C 33.867188 172.765625 34.289062 175.695312 34.804688 178.613281 C 35.316406 181.53125 35.925781 184.433594 36.625 187.3125 C 37.324219 190.191406 38.113281 193.046875 38.992188 195.875 C 39.875 198.707031 40.84375 201.503906 41.898438 204.273438 C 42.957031 207.039062 44.101562 209.773438 45.332031 212.46875 C 46.566406 215.164062 47.878906 217.816406 49.28125 220.429688 C 50.679688 223.042969 52.160156 225.605469 53.722656 228.125 C 55.285156 230.640625 56.925781 233.109375 58.644531 235.523438 C 60.363281 237.9375 62.15625 240.292969 64.027344 242.59375 C 65.894531 244.894531 67.832031 247.132812 69.84375 249.308594 C 71.855469 251.488281 73.933594 253.597656 76.078125 255.644531 C 78.222656 257.6875 80.429688 259.664062 82.699219 261.570312 C 84.96875 263.472656 87.296875 265.304688 89.679688 267.0625 C 92.066406 268.820312 94.507812 270.5 97 272.101562 C 99.492188 273.707031 102.03125 275.226562 104.621094 276.667969 C 107.210938 278.109375 109.84375 279.46875 112.519531 280.742188 C 115.195312 282.015625 117.90625 283.207031 120.660156 284.308594 C 123.410156 285.410156 126.191406 286.421875 129.007812 287.347656 C 131.824219 288.273438 134.664062 289.109375 137.53125 289.855469 C 140.398438 290.601562 143.289062 291.253906 146.199219 291.816406 C 149.109375 292.378906 152.03125 292.847656 154.972656 293.222656 C 157.910156 293.601562 160.859375 293.882812 163.816406 294.074219 C 166.773438 294.261719 169.734375 294.359375 172.699219 294.359375 C 175.660156 294.359375 178.621094 294.269531 181.578125 294.082031 C 184.539062 293.894531 187.484375 293.613281 190.425781 293.242188 C 193.367188 292.867188 196.289062 292.402344 199.199219 291.84375 C 202.109375 291.285156 205 290.632812 207.867188 289.890625 C 210.738281 289.148438 213.582031 288.316406 216.394531 287.390625 C 219.210938 286.46875 221.996094 285.457031 224.75 284.359375 C 227.5 283.257812 230.214844 282.074219 232.890625 280.800781 C 235.566406 279.53125 238.199219 278.175781 240.792969 276.734375 C 243.382812 275.296875 245.925781 273.777344 248.417969 272.175781 C 250.914062 270.578125 253.355469 268.898438 255.742188 267.144531 L 332.890625 369.175781 C 333.425781 369.882812 334.023438 370.535156 334.691406 371.128906 C 335.355469 371.71875 336.070312 372.242188 336.835938 372.691406 C 337.605469 373.144531 338.40625 373.515625 339.246094 373.808594 C 340.089844 374.101562 340.949219 374.308594 341.832031 374.433594 C 342.710938 374.554688 343.597656 374.59375 344.484375 374.542969 C 345.375 374.492188 346.25 374.351562 347.109375 374.128906 C 347.972656 373.90625 348.804688 373.601562 349.605469 373.214844 C 350.40625 372.828125 351.160156 372.367188 351.871094 371.828125 C 352.582031 371.292969 353.234375 370.691406 353.824219 370.027344 C 354.417969 369.363281 354.941406 368.648438 355.390625 367.882812 C 355.84375 367.113281 356.214844 366.308594 356.507812 365.46875 C 356.800781 364.628906 357.007812 363.769531 357.132812 362.886719 C 357.253906 362.007812 357.289062 361.121094 357.238281 360.234375 C 357.1875 359.34375 357.050781 358.46875 356.828125 357.609375 C 356.605469 356.746094 356.296875 355.914062 355.910156 355.113281 C 355.523438 354.3125 355.0625 353.554688 354.527344 352.847656 Z M 55.375 154.246094 C 55.375 152.324219 55.421875 150.402344 55.515625 148.480469 C 55.609375 146.5625 55.75 144.644531 55.941406 142.734375 C 56.128906 140.820312 56.363281 138.914062 56.644531 137.011719 C 56.925781 135.113281 57.253906 133.21875 57.628906 131.332031 C 58.003906 129.449219 58.425781 127.574219 58.890625 125.710938 C 59.359375 123.84375 59.871094 121.992188 60.429688 120.15625 C 60.984375 118.316406 61.585938 116.492188 62.234375 114.679688 C 62.882812 112.871094 63.574219 111.078125 64.308594 109.304688 C 65.042969 107.527344 65.824219 105.769531 66.644531 104.035156 C 67.464844 102.296875 68.328125 100.578125 69.234375 98.882812 C 70.140625 97.191406 71.085938 95.519531 72.074219 93.871094 C 73.0625 92.21875 74.089844 90.597656 75.160156 89 C 76.226562 87.402344 77.332031 85.832031 78.476562 84.285156 C 79.621094 82.742188 80.804688 81.226562 82.023438 79.742188 C 83.242188 78.257812 84.496094 76.800781 85.789062 75.378906 C 87.078125 73.953125 88.402344 72.5625 89.761719 71.203125 C 91.121094 69.84375 92.511719 68.519531 93.933594 67.226562 C 95.359375 65.9375 96.8125 64.679688 98.300781 63.460938 C 99.785156 62.242188 101.300781 61.0625 102.84375 59.914062 C 104.386719 58.769531 105.957031 57.664062 107.554688 56.597656 C 109.152344 55.527344 110.777344 54.5 112.425781 53.511719 C 114.074219 52.523438 115.746094 51.578125 117.441406 50.671875 C 119.132812 49.765625 120.851562 48.902344 122.589844 48.078125 C 124.324219 47.257812 126.082031 46.476562 127.859375 45.742188 C 129.632812 45.007812 131.425781 44.316406 133.234375 43.667969 C 135.042969 43.019531 136.867188 42.417969 138.707031 41.859375 C 140.546875 41.300781 142.398438 40.789062 144.261719 40.320312 C 146.128906 39.855469 148 39.433594 149.886719 39.058594 C 151.773438 38.683594 153.664062 38.355469 155.566406 38.074219 C 157.46875 37.789062 159.375 37.554688 161.285156 37.367188 C 163.199219 37.179688 165.113281 37.035156 167.035156 36.941406 C 168.953125 36.847656 170.875 36.800781 172.796875 36.800781 C 174.71875 36.800781 176.640625 36.847656 178.558594 36.941406 C 180.480469 37.035156 182.394531 37.175781 184.308594 37.367188 C 186.21875 37.554688 188.125 37.789062 190.027344 38.070312 C 191.929688 38.351562 193.820312 38.679688 195.707031 39.054688 C 197.59375 39.429688 199.464844 39.851562 201.332031 40.320312 C 203.195312 40.785156 205.046875 41.296875 206.886719 41.855469 C 208.726562 42.414062 210.550781 43.015625 212.359375 43.664062 C 214.167969 44.3125 215.960938 45.003906 217.738281 45.738281 C 219.511719 46.472656 221.269531 47.253906 223.007812 48.074219 C 224.742188 48.894531 226.460938 49.757812 228.15625 50.664062 C 229.851562 51.570312 231.523438 52.519531 233.171875 53.507812 C 234.820312 54.496094 236.441406 55.523438 238.039062 56.589844 C 239.636719 57.65625 241.207031 58.765625 242.753906 59.910156 C 244.296875 61.054688 245.8125 62.234375 247.296875 63.457031 C 248.78125 64.675781 250.238281 65.929688 251.660156 67.21875 C 253.085938 68.511719 254.476562 69.835938 255.835938 71.195312 C 257.195312 72.554688 258.519531 73.945312 259.808594 75.367188 C 261.101562 76.792969 262.355469 78.246094 263.574219 79.734375 C 264.792969 81.21875 265.976562 82.734375 267.121094 84.277344 C 268.265625 85.820312 269.371094 87.390625 270.441406 88.988281 C 271.507812 90.589844 272.535156 92.210938 273.523438 93.859375 C 274.511719 95.507812 275.457031 97.179688 276.363281 98.875 C 277.269531 100.570312 278.132812 102.285156 278.957031 104.023438 C 279.777344 105.761719 280.554688 107.515625 281.292969 109.292969 C 282.027344 111.070312 282.71875 112.859375 283.367188 114.671875 C 284.011719 116.480469 284.617188 118.304688 285.175781 120.144531 C 285.730469 121.984375 286.242188 123.835938 286.710938 125.699219 C 287.179688 127.5625 287.597656 129.4375 287.972656 131.324219 C 288.347656 133.207031 288.675781 135.101562 288.957031 137.003906 C 289.242188 138.902344 289.476562 140.808594 289.664062 142.722656 C 289.851562 144.636719 289.992188 146.550781 290.089844 148.472656 C 290.183594 150.390625 290.230469 152.3125 290.230469 154.234375 C 290.230469 156.15625 290.183594 158.074219 290.085938 159.996094 C 289.992188 161.914062 289.851562 163.832031 289.664062 165.742188 C 289.476562 167.65625 289.238281 169.5625 288.957031 171.464844 C 288.675781 173.367188 288.347656 175.257812 287.972656 177.144531 C 287.597656 179.027344 287.175781 180.902344 286.707031 182.765625 C 286.242188 184.632812 285.730469 186.484375 285.171875 188.320312 C 284.613281 190.160156 284.011719 191.984375 283.363281 193.796875 C 282.714844 195.605469 282.023438 197.398438 281.289062 199.171875 C 280.550781 200.949219 279.773438 202.703125 278.953125 204.441406 C 278.128906 206.179688 277.265625 207.894531 276.359375 209.589844 C 275.453125 211.285156 274.507812 212.957031 273.519531 214.605469 C 272.53125 216.253906 271.5 217.875 270.433594 219.472656 C 269.367188 221.074219 268.257812 222.644531 267.113281 224.1875 C 265.96875 225.730469 264.789062 227.246094 263.566406 228.730469 C 262.347656 230.214844 261.09375 231.671875 259.800781 233.09375 C 258.511719 234.519531 257.1875 235.910156 255.828125 237.269531 C 254.46875 238.628906 253.078125 239.953125 251.652344 241.242188 C 250.230469 242.535156 248.773438 243.789062 247.289062 245.007812 C 245.800781 246.226562 244.289062 247.410156 242.742188 248.554688 C 241.199219 249.699219 239.628906 250.804688 238.03125 251.871094 C 236.433594 252.9375 234.808594 253.964844 233.160156 254.953125 C 231.511719 255.941406 229.839844 256.890625 228.144531 257.796875 C 226.449219 258.699219 224.734375 259.566406 222.996094 260.386719 C 221.257812 261.207031 219.503906 261.984375 217.726562 262.722656 C 215.953125 263.457031 214.160156 264.148438 212.347656 264.796875 C 210.539062 265.441406 208.714844 266.042969 206.875 266.601562 C 205.035156 267.160156 203.183594 267.671875 201.320312 268.140625 C 199.457031 268.605469 197.582031 269.027344 195.695312 269.402344 C 193.8125 269.777344 191.917969 270.105469 190.015625 270.386719 C 188.117188 270.667969 186.210938 270.902344 184.296875 271.089844 C 182.382812 271.277344 180.46875 271.417969 178.546875 271.515625 C 176.628906 271.609375 174.707031 271.65625 172.785156 271.65625 C 170.863281 271.652344 168.945312 271.605469 167.023438 271.511719 C 165.105469 271.417969 163.191406 271.277344 161.277344 271.085938 C 159.367188 270.898438 157.460938 270.664062 155.558594 270.382812 C 153.660156 270.097656 151.765625 269.769531 149.882812 269.394531 C 147.996094 269.019531 146.121094 268.597656 144.257812 268.132812 C 142.394531 267.664062 140.542969 267.152344 138.707031 266.59375 C 136.867188 266.035156 135.042969 265.433594 133.234375 264.785156 C 131.425781 264.140625 129.632812 263.449219 127.859375 262.710938 C 126.082031 261.976562 124.328125 261.199219 122.589844 260.378906 C 120.851562 259.554688 119.136719 258.691406 117.441406 257.785156 C 115.746094 256.878906 114.078125 255.933594 112.429688 254.945312 C 110.78125 253.957031 109.15625 252.929688 107.558594 251.863281 C 105.960938 250.792969 104.390625 249.6875 102.847656 248.542969 C 101.304688 247.398438 99.792969 246.21875 98.304688 245 C 96.820312 243.78125 95.367188 242.523438 93.941406 241.234375 C 92.519531 239.945312 91.128906 238.621094 89.769531 237.261719 C 88.410156 235.902344 87.085938 234.511719 85.796875 233.085938 C 84.503906 231.664062 83.25 230.210938 82.03125 228.722656 C 80.8125 227.238281 79.628906 225.722656 78.484375 224.179688 C 77.339844 222.636719 76.234375 221.066406 75.167969 219.46875 C 74.101562 217.871094 73.074219 216.25 72.085938 214.601562 C 71.097656 212.953125 70.148438 211.28125 69.246094 209.585938 C 68.339844 207.894531 67.472656 206.175781 66.652344 204.441406 C 65.832031 202.703125 65.054688 200.949219 64.316406 199.171875 C 63.582031 197.398438 62.890625 195.605469 62.242188 193.796875 C 61.59375 191.988281 60.992188 190.164062 60.433594 188.324219 C 59.878906 186.484375 59.363281 184.636719 58.898438 182.769531 C 58.429688 180.90625 58.007812 179.03125 57.632812 177.148438 C 57.257812 175.265625 56.929688 173.371094 56.648438 171.472656 C 56.367188 169.570312 56.132812 167.664062 55.941406 165.753906 C 55.753906 163.839844 55.613281 161.925781 55.519531 160.003906 C 55.421875 158.085938 55.375 156.164062 55.375 154.246094 Z M 55.375 154.246094 " fill-opacity="1" fill-rule="nonzero"/></g></svg>