<svg xmlns="http://www.w3.org/2000/svg" xmlns:xlink="http://www.w3.org/1999/xlink" width="500" zoomAndPan="magnify" viewBox="0 0 375 374.999991" height="500" preserveAspectRatio="xMidYMid meet" version="1.0"><path fill="#ff3131" d="M 73.003906 342.898438 C 71.6875 342.898438 70.429688 343.429688 69.507812 344.367188 C 68.589844 345.304688 68.085938 346.570312 68.113281 347.890625 C 68.414062 362.71875 80.550781 374.675781 95.457031 374.675781 C 110.367188 374.675781 122.503906 362.71875 122.8125 347.890625 C 122.835938 346.570312 122.335938 345.304688 121.414062 344.367188 C 120.496094 343.429688 119.230469 342.898438 117.917969 342.898438 Z M 73.003906 342.898438 " fill-opacity="1" fill-rule="evenodd"/><path fill="#ff3131" d="M 147.769531 275.414062 L 147.769531 275.40625 L 147.769531 280.832031 C 147.769531 291.878906 150.046875 302.757812 154.410156 312.808594 C 154.945312 314.046875 155.972656 315.007812 157.246094 315.464844 C 174.359375 321.601562 192.816406 324.945312 212.042969 324.945312 C 301.800781 324.945312 374.675781 252.066406 374.675781 162.304688 C 374.675781 72.546875 301.800781 -0.324219 212.042969 -0.324219 C 122.28125 -0.324219 49.402344 72.546875 49.402344 162.304688 C 49.402344 185.457031 54.253906 207.488281 62.988281 227.425781 C 63.542969 228.691406 64.605469 229.664062 65.914062 230.105469 C 67.226562 230.542969 68.660156 230.40625 69.859375 229.734375 C 77.609375 225.382812 86.414062 223.042969 95.453125 223.042969 C 95.457031 223.042969 95.464844 223.042969 95.464844 223.042969 C 109.335938 223.042969 122.640625 228.554688 132.449219 238.363281 C 142.257812 248.171875 147.769531 261.476562 147.769531 275.347656 Z M 157.550781 280.832031 L 157.550781 275.347656 C 157.550781 258.878906 151.011719 243.085938 139.371094 231.445312 C 127.722656 219.800781 111.933594 213.261719 95.464844 213.261719 C 95.464844 213.261719 95.457031 213.261719 95.453125 213.261719 C 86.574219 213.261719 77.894531 215.160156 69.957031 218.738281 C 63.007812 201.273438 59.183594 182.238281 59.183594 162.304688 C 59.183594 77.949219 127.675781 9.457031 212.042969 9.457031 C 296.398438 9.457031 364.890625 77.949219 364.890625 162.304688 C 364.890625 246.671875 296.398438 315.164062 212.042969 315.164062 C 194.726562 315.164062 178.082031 312.273438 162.574219 306.964844 C 159.265625 298.6875 157.550781 289.824219 157.550781 280.832031 Z M 157.550781 280.832031 " fill-opacity="1" fill-rule="evenodd"/><path fill="#ff3131" d="M 169.113281 319.550781 C 169.070312 319.472656 169.015625 319.394531 168.964844 319.316406 C 161.515625 307.859375 157.550781 294.496094 157.550781 280.832031 L 157.550781 275.347656 C 157.550781 258.878906 151.011719 243.085938 139.371094 231.445312 C 127.722656 219.800781 111.933594 213.261719 95.464844 213.261719 C 95.464844 213.261719 95.457031 213.261719 95.453125 213.261719 C 78.984375 213.261719 63.195312 219.800781 51.554688 231.445312 C 39.914062 243.085938 33.371094 258.878906 33.371094 275.347656 L 33.371094 280.832031 C 33.371094 294.496094 29.40625 307.863281 21.957031 319.316406 C 21.953125 319.316406 21.953125 319.316406 21.953125 319.316406 C 17.335938 326.425781 16.617188 335.386719 20.054688 343.132812 C 20.054688 343.140625 20.0625 343.148438 20.0625 343.148438 C 22.628906 348.945312 28.375 352.683594 34.714844 352.683594 C 58.292969 352.683594 132.632812 352.683594 156.203125 352.683594 C 162.542969 352.683594 168.285156 348.945312 170.855469 343.148438 C 170.863281 343.148438 170.863281 343.140625 170.863281 343.132812 C 174.265625 335.472656 173.601562 326.621094 169.113281 319.550781 Z M 147.769531 275.414062 L 147.769531 275.40625 L 147.769531 280.832031 C 147.769531 296.300781 152.238281 311.433594 160.625 324.425781 C 160.667969 324.503906 160.714844 324.582031 160.765625 324.652344 C 163.585938 328.984375 164.015625 334.449219 161.921875 339.167969 L 161.914062 339.183594 C 160.917969 341.4375 158.675781 342.898438 156.203125 342.898438 C 132.632812 342.898438 58.292969 342.898438 34.714844 342.898438 C 32.242188 342.898438 30.007812 341.4375 29.003906 339.183594 L 28.996094 339.167969 C 26.902344 334.449219 27.339844 328.984375 30.15625 324.652344 C 38.636719 311.609375 43.15625 296.386719 43.15625 280.832031 C 43.15625 277.851562 43.15625 275.40625 43.15625 275.40625 C 43.15625 275.40625 43.15625 275.347656 43.15625 275.347656 C 43.15625 261.476562 48.664062 248.171875 58.472656 238.363281 C 68.28125 228.554688 81.582031 223.042969 95.453125 223.042969 C 95.457031 223.042969 95.464844 223.042969 95.464844 223.042969 C 109.335938 223.042969 122.640625 228.554688 132.449219 238.363281 C 142.257812 248.171875 147.769531 261.476562 147.769531 275.347656 Z M 147.769531 275.414062 " fill-opacity="1" fill-rule="evenodd"/><path fill="#ff3131" d="M 72.445312 222.730469 C 72.855469 223.964844 73.742188 224.988281 74.910156 225.5625 C 76.074219 226.140625 77.425781 226.234375 78.652344 225.816406 C 84.019531 223.996094 89.6875 223.042969 95.453125 223.042969 C 95.457031 223.042969 95.464844 223.042969 95.464844 223.042969 C 101.238281 223.042969 106.90625 223.996094 112.265625 225.816406 C 113.496094 226.234375 114.847656 226.140625 116.007812 225.5625 C 117.175781 224.988281 118.0625 223.964844 118.472656 222.730469 C 119.28125 220.316406 119.71875 217.734375 119.71875 215.054688 C 119.71875 201.664062 108.847656 190.800781 95.457031 190.800781 C 82.070312 190.800781 71.203125 201.664062 71.203125 215.054688 C 71.203125 217.734375 71.640625 220.316406 72.445312 222.730469 Z M 72.445312 222.730469 " fill-opacity="1" fill-rule="evenodd"/><path fill="#ff3131" d="M 27.730469 207.621094 C 9.761719 225.582031 -0.324219 249.945312 -0.324219 275.347656 C -0.324219 282.691406 5.640625 288.660156 12.992188 288.660156 C 20.335938 288.660156 26.300781 282.691406 26.300781 275.347656 C 26.300781 257.007812 33.585938 239.417969 46.558594 226.449219 C 51.757812 221.25 51.757812 212.816406 46.558594 207.621094 C 41.359375 202.421875 32.921875 202.421875 27.730469 207.621094 Z M 191.242188 275.347656 C 191.242188 249.945312 181.15625 225.582031 163.195312 207.621094 C 157.996094 202.421875 149.554688 202.421875 144.363281 207.621094 C 139.167969 212.816406 139.167969 221.25 144.363281 226.449219 C 157.332031 239.417969 164.613281 257.007812 164.613281 275.347656 C 164.613281 282.691406 170.582031 288.660156 177.933594 288.660156 C 185.28125 288.660156 191.242188 282.691406 191.242188 275.347656 Z M 191.242188 275.347656 " fill-opacity="1" fill-rule="evenodd"/><path fill="#ff3131" d="M 93.828125 177.789062 C 94.371094 177.761719 94.917969 177.757812 95.457031 177.757812 C 112.101562 177.757812 126.214844 188.675781 131.007812 203.738281 C 132.125 201.828125 133.5 200.035156 135.136719 198.398438 C 145.429688 188.105469 162.128906 188.105469 172.414062 198.398438 C 192.820312 218.804688 204.285156 246.484375 204.285156 275.347656 C 204.285156 277.363281 204.066406 279.332031 203.628906 281.222656 C 206.40625 281.417969 209.210938 281.515625 212.042969 281.515625 C 277.832031 281.515625 331.246094 228.097656 331.246094 162.304688 C 331.246094 96.515625 277.832031 43.101562 212.042969 43.101562 C 146.25 43.101562 92.832031 96.515625 92.832031 162.304688 C 92.832031 167.554688 93.167969 172.722656 93.828125 177.789062 Z M 191.015625 162.867188 C 191.007812 162.996094 191.003906 163.136719 191.003906 163.265625 C 191.003906 174.703125 200.28125 183.984375 211.722656 183.984375 C 211.898438 183.984375 212.082031 183.976562 212.257812 183.957031 L 269.007812 177.730469 C 276.847656 177.582031 283.179688 171.15625 283.179688 163.265625 C 283.179688 155.355469 276.820312 148.925781 268.945312 148.800781 C 269.007812 148.800781 230.929688 144.621094 230.929688 144.621094 C 230.929688 144.621094 226.1875 87.058594 226.1875 87.058594 C 226.074219 79.179688 219.632812 72.808594 211.722656 72.808594 C 203.796875 72.808594 197.355469 79.195312 197.257812 87.089844 C 197.257812 87.058594 191.015625 162.867188 191.015625 162.867188 Z M 191.015625 162.867188 " fill-opacity="1" fill-rule="evenodd"/></svg>