<svg xmlns="http://www.w3.org/2000/svg" xmlns:xlink="http://www.w3.org/1999/xlink" width="500" zoomAndPan="magnify" viewBox="0 0 375 374.999991" height="500" preserveAspectRatio="xMidYMid meet" version="1.0"><defs><clipPath id="fbee2a1a0f"><path d="M 37.5 0 L 337.5 0 L 337.5 375 L 37.5 375 Z M 37.5 0 " clip-rule="nonzero"/></clipPath></defs><g clip-path="url(#fbee2a1a0f)"><path fill="#5271ff" d="M 50 25 C 50 18.117188 55.613281 12.5 62.5 12.5 L 281.25 12.5 L 281.25 31.25 C 281.25 45.042969 292.457031 56.25 306.25 56.25 L 325 56.25 L 325 350 C 325 356.882812 319.382812 362.5 312.5 362.5 L 62.5 362.5 C 55.613281 362.5 50 356.882812 50 350 Z M 316.160156 43.75 L 306.25 43.75 C 299.363281 43.75 293.75 38.132812 293.75 31.25 L 293.75 21.335938 Z M 62.5 375 L 312.5 375 C 326.292969 375 337.5 363.792969 337.5 350 L 337.5 55.175781 C 337.5 52.539062 336.9375 50.023438 335.914062 47.679688 C 335.839844 47.535156 335.765625 47.4375 335.71875 47.3125 C 334.789062 45.335938 333.59375 43.503906 332.007812 41.917969 L 295.582031 5.492188 C 293.992188 3.90625 292.136719 2.6875 290.160156 1.757812 C 290.039062 1.710938 289.964844 1.636719 289.84375 1.609375 C 287.5 0.5625 284.960938 0 282.324219 0 L 62.5 0 C 48.707031 0 37.5 11.207031 37.5 25 L 37.5 350 C 37.5 363.792969 48.707031 375 62.5 375 " fill-opacity="1" fill-rule="nonzero"/></g><path fill="#5271ff" d="M 87.5 87.5 C 87.5 84.058594 90.308594 81.25 93.75 81.25 L 131.25 81.25 C 133.933594 81.25 136.179688 82.957031 137.058594 85.351562 L 118.75 103.660156 L 110.667969 95.582031 C 108.226562 93.140625 104.273438 93.140625 101.832031 95.582031 C 99.390625 98.023438 99.390625 101.976562 101.832031 104.417969 L 114.332031 116.917969 C 115.550781 118.140625 117.136719 118.75 118.75 118.75 C 120.359375 118.75 121.949219 118.140625 123.167969 116.917969 L 137.5 102.585938 L 137.5 125 C 137.5 128.441406 134.691406 131.25 131.25 131.25 L 93.75 131.25 C 90.308594 131.25 87.5 128.441406 87.5 125 Z M 93.75 143.75 L 131.25 143.75 C 141.601562 143.75 150 135.351562 150 125 L 150 90.085938 L 166.917969 73.167969 C 169.359375 70.726562 169.359375 66.773438 166.917969 64.332031 C 164.476562 61.890625 160.523438 61.890625 158.082031 64.332031 L 146.167969 76.246094 C 142.722656 71.726562 137.351562 68.75 131.25 68.75 L 93.75 68.75 C 83.398438 68.75 75 77.148438 75 87.5 L 75 125 C 75 135.351562 83.398438 143.75 93.75 143.75 " fill-opacity="1" fill-rule="nonzero"/><path fill="#5271ff" d="M 87.5 175 C 87.5 171.558594 90.308594 168.75 93.75 168.75 L 131.25 168.75 C 134.691406 168.75 137.5 171.558594 137.5 175 L 137.5 212.5 C 137.5 215.941406 134.691406 218.75 131.25 218.75 L 93.75 218.75 C 90.308594 218.75 87.5 215.941406 87.5 212.5 Z M 93.75 231.25 L 131.25 231.25 C 141.601562 231.25 150 222.851562 150 212.5 L 150 175 C 150 164.648438 141.601562 156.25 131.25 156.25 L 93.75 156.25 C 83.398438 156.25 75 164.648438 75 175 L 75 212.5 C 75 222.851562 83.398438 231.25 93.75 231.25 " fill-opacity="1" fill-rule="nonzero"/><path fill="#5271ff" d="M 87.5 262.5 C 87.5 259.058594 90.308594 256.25 93.75 256.25 L 131.25 256.25 C 134.691406 256.25 137.5 259.058594 137.5 262.5 L 137.5 300 C 137.5 303.441406 134.691406 306.25 131.25 306.25 L 93.75 306.25 C 90.308594 306.25 87.5 303.441406 87.5 300 Z M 93.75 318.75 L 131.25 318.75 C 141.601562 318.75 150 310.351562 150 300 L 150 262.5 C 150 252.148438 141.601562 243.75 131.25 243.75 L 93.75 243.75 C 83.398438 243.75 75 252.148438 75 262.5 L 75 300 C 75 310.351562 83.398438 318.75 93.75 318.75 " fill-opacity="1" fill-rule="nonzero"/><path fill="#5271ff" d="M 187.5 93.75 L 293.75 93.75 C 297.191406 93.75 300 90.941406 300 87.5 C 300 84.058594 297.191406 81.25 293.75 81.25 L 187.5 81.25 C 184.058594 81.25 181.25 84.058594 181.25 87.5 C 181.25 90.941406 184.058594 93.75 187.5 93.75 " fill-opacity="1" fill-rule="nonzero"/><path fill="#5271ff" d="M 187.5 125 L 250 125 C 253.441406 125 256.25 122.191406 256.25 118.75 C 256.25 115.308594 253.441406 112.5 250 112.5 L 187.5 112.5 C 184.058594 112.5 181.25 115.308594 181.25 118.75 C 181.25 122.191406 184.058594 125 187.5 125 " fill-opacity="1" fill-rule="nonzero"/><path fill="#5271ff" d="M 187.5 181.25 L 293.75 181.25 C 297.191406 181.25 300 178.441406 300 175 C 300 171.558594 297.191406 168.75 293.75 168.75 L 187.5 168.75 C 184.058594 168.75 181.25 171.558594 181.25 175 C 181.25 178.441406 184.058594 181.25 187.5 181.25 " fill-opacity="1" fill-rule="nonzero"/><path fill="#5271ff" d="M 187.5 212.5 L 250 212.5 C 253.441406 212.5 256.25 209.691406 256.25 206.25 C 256.25 202.808594 253.441406 200 250 200 L 187.5 200 C 184.058594 200 181.25 202.808594 181.25 206.25 C 181.25 209.691406 184.058594 212.5 187.5 212.5 " fill-opacity="1" fill-rule="nonzero"/><path fill="#5271ff" d="M 187.5 268.75 L 293.75 268.75 C 297.191406 268.75 300 265.941406 300 262.5 C 300 259.058594 297.191406 256.25 293.75 256.25 L 187.5 256.25 C 184.058594 256.25 181.25 259.058594 181.25 262.5 C 181.25 265.941406 184.058594 268.75 187.5 268.75 " fill-opacity="1" fill-rule="nonzero"/><path fill="#5271ff" d="M 187.5 300 L 250 300 C 253.441406 300 256.25 297.191406 256.25 293.75 C 256.25 290.308594 253.441406 287.5 250 287.5 L 187.5 287.5 C 184.058594 287.5 181.25 290.308594 181.25 293.75 C 181.25 297.191406 184.058594 300 187.5 300 " fill-opacity="1" fill-rule="nonzero"/></svg>