<svg xmlns="http://www.w3.org/2000/svg" xmlns:xlink="http://www.w3.org/1999/xlink" width="263" zoomAndPan="magnify" viewBox="0 0 197.25 97.5" height="130" preserveAspectRatio="xMidYMid meet" version="1.0"><defs><clipPath id="4b440c6be8"><path d="M 74 48.5 L 99 48.5 L 99 73 L 74 73 Z M 74 48.5 " clip-rule="nonzero"/></clipPath><clipPath id="9159d570c8"><path d="M 49 72 L 75 72 L 75 97.003906 L 49 97.003906 Z M 49 72 " clip-rule="nonzero"/></clipPath><clipPath id="f4979c07e5"><path d="M 25 72 L 50 72 L 50 97.003906 L 25 97.003906 Z M 25 72 " clip-rule="nonzero"/></clipPath><clipPath id="d6230d1700"><path d="M 1.410156 48.5 L 7 48.5 L 7 54 L 1.410156 54 Z M 1.410156 48.5 " clip-rule="nonzero"/></clipPath><clipPath id="d0dcd65496"><path d="M 1.410156 48.5 L 11 48.5 L 11 59 L 1.410156 59 Z M 1.410156 48.5 " clip-rule="nonzero"/></clipPath><clipPath id="8365319ed5"><path d="M 1.410156 48.5 L 16 48.5 L 16 63 L 1.410156 63 Z M 1.410156 48.5 " clip-rule="nonzero"/></clipPath><clipPath id="727b208f7f"><path d="M 1.410156 48.5 L 21 48.5 L 21 68 L 1.410156 68 Z M 1.410156 48.5 " clip-rule="nonzero"/></clipPath><clipPath id="ea3523f897"><path d="M 1.410156 48.5 L 25 48.5 L 25 72 L 1.410156 72 Z M 1.410156 48.5 " clip-rule="nonzero"/></clipPath><clipPath id="b38e6bdf95"><path d="M 25 48.5 L 50 48.5 L 50 73 L 25 73 Z M 25 48.5 " clip-rule="nonzero"/></clipPath><clipPath id="c1ffdf23bd"><path d="M 1.410156 72 L 26 72 L 26 97.003906 L 1.410156 97.003906 Z M 1.410156 72 " clip-rule="nonzero"/></clipPath><clipPath id="a4b7741e3c"><path d="M 74 73 L 99 73 L 99 97.003906 L 74 97.003906 Z M 74 73 " clip-rule="nonzero"/></clipPath><clipPath id="e312ead08c"><path d="M 79 78 L 99 78 L 99 97.003906 L 79 97.003906 Z M 79 78 " clip-rule="nonzero"/></clipPath><clipPath id="63b7dbb515"><path d="M 84 82 L 99 82 L 99 97.003906 L 84 97.003906 Z M 84 82 " clip-rule="nonzero"/></clipPath><clipPath id="92c647cd10"><path d="M 88 87 L 99 87 L 99 97.003906 L 88 97.003906 Z M 88 87 " clip-rule="nonzero"/></clipPath><clipPath id="5a2972049d"><path d="M 93 92 L 99 92 L 99 97.003906 L 93 97.003906 Z M 93 92 " clip-rule="nonzero"/></clipPath><clipPath id="c9ea75e002"><path d="M 98 72 L 123 72 L 123 97.003906 L 98 97.003906 Z M 98 72 " clip-rule="nonzero"/></clipPath><clipPath id="b1450f7989"><path d="M 122 72 L 147 72 L 147 97.003906 L 122 97.003906 Z M 122 72 " clip-rule="nonzero"/></clipPath><clipPath id="5be397563e"><path d="M 147 73 L 171 73 L 171 97.003906 L 147 97.003906 Z M 147 73 " clip-rule="nonzero"/></clipPath><clipPath id="ad5bd536a6"><path d="M 152 78 L 171 78 L 171 97.003906 L 152 97.003906 Z M 152 78 " clip-rule="nonzero"/></clipPath><clipPath id="c11c07395d"><path d="M 156 82 L 171 82 L 171 97.003906 L 156 97.003906 Z M 156 82 " clip-rule="nonzero"/></clipPath><clipPath id="a675f16898"><path d="M 161 87 L 171 87 L 171 97.003906 L 161 97.003906 Z M 161 87 " clip-rule="nonzero"/></clipPath><clipPath id="fe429ed8be"><path d="M 165 92 L 171 92 L 171 97.003906 L 165 97.003906 Z M 165 92 " clip-rule="nonzero"/></clipPath><clipPath id="7249f5f843"><path d="M 170 72 L 195.414062 72 L 195.414062 97.003906 L 170 97.003906 Z M 170 72 " clip-rule="nonzero"/></clipPath><clipPath id="1d0263c827"><path d="M 49 48.5 L 75 48.5 L 75 73 L 49 73 Z M 49 48.5 " clip-rule="nonzero"/></clipPath><clipPath id="35864215f5"><path d="M 98 48.5 L 123 48.5 L 123 73 L 98 73 Z M 98 48.5 " clip-rule="nonzero"/></clipPath><clipPath id="a10566dc8b"><path d="M 122 48.5 L 147 48.5 L 147 73 L 122 73 Z M 122 48.5 " clip-rule="nonzero"/></clipPath><clipPath id="9d0e5eceb6"><path d="M 146 48.5 L 171 48.5 L 171 73 L 146 73 Z M 146 48.5 " clip-rule="nonzero"/></clipPath><clipPath id="f96ec743f4"><path d="M 170 48.5 L 195.414062 48.5 L 195.414062 73 L 170 73 Z M 170 48.5 " clip-rule="nonzero"/></clipPath><clipPath id="dd1644af7e"><path d="M 98 24 L 123 24 L 123 48.5 L 98 48.5 Z M 98 24 " clip-rule="nonzero"/></clipPath><clipPath id="548da46dfa"><path d="M 190 43 L 195.089844 43 L 195.089844 48.5 L 190 48.5 Z M 190 43 " clip-rule="nonzero"/></clipPath><clipPath id="c0774c82e4"><path d="M 185 38 L 195.089844 38 L 195.089844 48.5 L 185 48.5 Z M 185 38 " clip-rule="nonzero"/></clipPath><clipPath id="a8f9720077"><path d="M 180 34 L 195.089844 34 L 195.089844 48.5 L 180 48.5 Z M 180 34 " clip-rule="nonzero"/></clipPath><clipPath id="466b6d9d6b"><path d="M 176 29 L 195.089844 29 L 195.089844 48.5 L 176 48.5 Z M 176 29 " clip-rule="nonzero"/></clipPath><clipPath id="affc3c4226"><path d="M 171 25 L 195.089844 25 L 195.089844 48.5 L 171 48.5 Z M 171 25 " clip-rule="nonzero"/></clipPath><clipPath id="5b2b727970"><path d="M 146 24 L 171 24 L 171 48.5 L 146 48.5 Z M 146 24 " clip-rule="nonzero"/></clipPath><clipPath id="f553b7443d"><path d="M 170 0 L 195.089844 0 L 195.089844 25 L 170 25 Z M 170 0 " clip-rule="nonzero"/></clipPath><clipPath id="4d9137969c"><path d="M 1.410156 0 L 26 0 L 26 25 L 1.410156 25 Z M 1.410156 0 " clip-rule="nonzero"/></clipPath><clipPath id="4b22d21d9d"><path d="M 122 24 L 147 24 L 147 48.5 L 122 48.5 Z M 122 24 " clip-rule="nonzero"/></clipPath><clipPath id="b93c7621b1"><path d="M 74 24 L 99 24 L 99 48.5 L 74 48.5 Z M 74 24 " clip-rule="nonzero"/></clipPath><clipPath id="e7ca2e5eed"><path d="M 49 24 L 75 24 L 75 48.5 L 49 48.5 Z M 49 24 " clip-rule="nonzero"/></clipPath><clipPath id="07814e5541"><path d="M 25 24 L 50 24 L 50 48.5 L 25 48.5 Z M 25 24 " clip-rule="nonzero"/></clipPath><clipPath id="d6ed1ee8da"><path d="M 1.410156 24 L 26 24 L 26 48.5 L 1.410156 48.5 Z M 1.410156 24 " clip-rule="nonzero"/></clipPath></defs><g clip-path="url(#4b440c6be8)"><path fill="#8c52ff" d="M 98.316406 48.5 L 98.316406 72.816406 L 74 72.816406 C 74 59.386719 84.886719 48.5 98.316406 48.5 Z M 98.316406 48.5 " fill-opacity="1" fill-rule="nonzero"/></g><g clip-path="url(#9159d570c8)"><path fill="#adfcff" d="M 74.128906 97.003906 C 60.699219 97.003906 49.8125 86.117188 49.8125 72.6875 L 74.128906 72.6875 Z M 74.128906 97.003906 " fill-opacity="1" fill-rule="nonzero"/></g><g clip-path="url(#f4979c07e5)"><path fill="#fed90e" d="M 25.628906 72.6875 L 49.941406 72.6875 L 49.941406 97.003906 Z M 25.628906 72.6875 " fill-opacity="1" fill-rule="nonzero"/></g><g clip-path="url(#d6230d1700)"><path fill="#ff66c4" d="M 6.375 48.5 L 1.441406 53.4375 L 1.441406 48.5 Z M 6.375 48.5 " fill-opacity="1" fill-rule="nonzero"/></g><g clip-path="url(#d0dcd65496)"><path fill="#ff66c4" d="M 10.972656 48.5 L 1.441406 58.03125 L 1.441406 55.414062 L 8.355469 48.5 Z M 10.972656 48.5 " fill-opacity="1" fill-rule="nonzero"/></g><g clip-path="url(#8365319ed5)"><path fill="#ff66c4" d="M 15.574219 48.5 L 1.441406 62.632812 L 1.441406 60.011719 L 12.953125 48.5 Z M 15.574219 48.5 " fill-opacity="1" fill-rule="nonzero"/></g><g clip-path="url(#727b208f7f)"><path fill="#ff66c4" d="M 20.171875 48.5 L 1.441406 67.230469 L 1.441406 64.609375 L 17.550781 48.5 Z M 20.171875 48.5 " fill-opacity="1" fill-rule="nonzero"/></g><g clip-path="url(#ea3523f897)"><path fill="#ff66c4" d="M 24.769531 48.5 L 1.441406 71.828125 L 1.441406 69.207031 L 22.148438 48.5 Z M 24.769531 48.5 " fill-opacity="1" fill-rule="nonzero"/></g><path fill="#ff66c4" d="M 25.757812 49.492188 L 25.757812 52.109375 L 5.050781 72.816406 L 2.429688 72.816406 Z M 25.757812 49.492188 " fill-opacity="1" fill-rule="nonzero"/><path fill="#ff66c4" d="M 7.027344 72.816406 L 25.757812 54.089844 L 25.757812 56.707031 L 9.648438 72.816406 Z M 7.027344 72.816406 " fill-opacity="1" fill-rule="nonzero"/><path fill="#ff66c4" d="M 11.628906 72.6875 L 25.757812 58.558594 L 25.757812 61.175781 L 14.246094 72.6875 Z M 11.628906 72.6875 " fill-opacity="1" fill-rule="nonzero"/><path fill="#ff66c4" d="M 16.226562 72.6875 L 25.757812 63.15625 L 25.757812 65.773438 L 18.84375 72.6875 Z M 16.226562 72.6875 " fill-opacity="1" fill-rule="nonzero"/><path fill="#ff66c4" d="M 20.824219 72.6875 L 25.757812 67.753906 L 25.757812 72.6875 Z M 20.824219 72.6875 " fill-opacity="1" fill-rule="nonzero"/><g clip-path="url(#b38e6bdf95)"><path fill="#adfcff" d="M 25.628906 48.5 L 49.941406 72.816406 L 25.628906 72.816406 Z M 25.628906 48.5 " fill-opacity="1" fill-rule="nonzero"/></g><g clip-path="url(#c1ffdf23bd)"><path fill="#8c52ff" d="M 13.601562 72.6875 C 14.398438 72.6875 15.1875 72.765625 15.972656 72.921875 C 16.753906 73.078125 17.515625 73.308594 18.253906 73.613281 C 18.988281 73.917969 19.691406 74.292969 20.355469 74.734375 C 21.019531 75.179688 21.632812 75.683594 22.195312 76.246094 C 22.761719 76.8125 23.265625 77.425781 23.707031 78.089844 C 24.152344 78.753906 24.527344 79.453125 24.832031 80.191406 C 25.136719 80.929688 25.367188 81.691406 25.523438 82.472656 C 25.679688 83.257812 25.757812 84.046875 25.757812 84.84375 C 25.757812 85.644531 25.679688 86.433594 25.523438 87.214844 C 25.367188 88 25.136719 88.761719 24.832031 89.496094 C 24.527344 90.234375 24.152344 90.933594 23.707031 91.597656 C 23.265625 92.261719 22.761719 92.878906 22.195312 93.441406 C 21.632812 94.007812 21.019531 94.511719 20.355469 94.953125 C 19.691406 95.398438 18.988281 95.773438 18.253906 96.078125 C 17.515625 96.382812 16.753906 96.613281 15.972656 96.769531 C 15.1875 96.925781 14.398438 97.003906 13.601562 97.003906 C 12.800781 97.003906 12.011719 96.925781 11.226562 96.769531 C 10.445312 96.613281 9.683594 96.382812 8.945312 96.078125 C 8.210938 95.773438 7.507812 95.398438 6.84375 94.953125 C 6.179688 94.511719 5.566406 94.007812 5.003906 93.441406 C 4.4375 92.878906 3.933594 92.261719 3.492188 91.597656 C 3.046875 90.933594 2.671875 90.234375 2.367188 89.496094 C 2.0625 88.761719 1.832031 88 1.675781 87.214844 C 1.519531 86.433594 1.441406 85.644531 1.441406 84.84375 C 1.441406 84.046875 1.519531 83.257812 1.675781 82.472656 C 1.832031 81.691406 2.0625 80.929688 2.367188 80.191406 C 2.671875 79.453125 3.046875 78.753906 3.492188 78.089844 C 3.933594 77.425781 4.4375 76.8125 5.003906 76.246094 C 5.566406 75.683594 6.179688 75.179688 6.84375 74.734375 C 7.507812 74.292969 8.210938 73.917969 8.945312 73.613281 C 9.683594 73.308594 10.445312 73.078125 11.226562 72.921875 C 12.011719 72.765625 12.800781 72.6875 13.601562 72.6875 Z M 13.601562 72.6875 " fill-opacity="1" fill-rule="nonzero"/></g><path fill="#ff66c4" d="M 78.933594 72.6875 L 74 77.621094 L 74 72.6875 Z M 78.933594 72.6875 " fill-opacity="1" fill-rule="nonzero"/><path fill="#ff66c4" d="M 83.53125 72.6875 L 74 82.21875 L 74 79.597656 L 80.910156 72.6875 Z M 83.53125 72.6875 " fill-opacity="1" fill-rule="nonzero"/><path fill="#ff66c4" d="M 88.128906 72.6875 L 74 86.816406 L 74 84.199219 L 85.511719 72.6875 Z M 88.128906 72.6875 " fill-opacity="1" fill-rule="nonzero"/><path fill="#ff66c4" d="M 92.726562 72.6875 L 74 91.414062 L 74 88.796875 L 90.109375 72.6875 Z M 92.726562 72.6875 " fill-opacity="1" fill-rule="nonzero"/><path fill="#ff66c4" d="M 97.324219 72.6875 L 74 96.011719 L 74 93.394531 L 94.707031 72.6875 Z M 97.324219 72.6875 " fill-opacity="1" fill-rule="nonzero"/><g clip-path="url(#a4b7741e3c)"><path fill="#ff66c4" d="M 98.316406 73.675781 L 98.316406 76.296875 L 77.609375 97.003906 L 74.988281 97.003906 Z M 98.316406 73.675781 " fill-opacity="1" fill-rule="nonzero"/></g><g clip-path="url(#e312ead08c)"><path fill="#ff66c4" d="M 98.316406 78.273438 L 98.316406 80.894531 L 82.207031 97.003906 L 79.585938 97.003906 Z M 98.316406 78.273438 " fill-opacity="1" fill-rule="nonzero"/></g><g clip-path="url(#63b7dbb515)"><path fill="#ff66c4" d="M 98.316406 82.871094 L 98.316406 85.492188 L 86.804688 97.003906 L 84.183594 97.003906 Z M 98.316406 82.871094 " fill-opacity="1" fill-rule="nonzero"/></g><g clip-path="url(#92c647cd10)"><path fill="#ff66c4" d="M 98.316406 87.472656 L 98.316406 90.089844 L 91.402344 97.003906 L 88.785156 97.003906 Z M 98.316406 87.472656 " fill-opacity="1" fill-rule="nonzero"/></g><g clip-path="url(#5a2972049d)"><path fill="#ff66c4" d="M 93.378906 97.003906 L 98.316406 92.066406 L 98.316406 97.003906 Z M 93.378906 97.003906 " fill-opacity="1" fill-rule="nonzero"/></g><g clip-path="url(#c9ea75e002)"><path fill="#fed90e" d="M 98.183594 72.6875 C 111.613281 72.6875 122.5 83.574219 122.5 97.003906 C 109.070312 97.003906 98.183594 86.117188 98.183594 72.6875 Z M 98.183594 72.6875 " fill-opacity="1" fill-rule="nonzero"/></g><g clip-path="url(#b1450f7989)"><path fill="#8c52ff" d="M 146.6875 72.6875 L 146.6875 97.003906 L 122.371094 97.003906 C 122.371094 83.574219 133.257812 72.6875 146.6875 72.6875 Z M 146.6875 72.6875 " fill-opacity="1" fill-rule="nonzero"/></g><path fill="#adfcff" d="M 151.363281 72.6875 L 146.425781 77.621094 L 146.425781 72.6875 Z M 151.363281 72.6875 " fill-opacity="1" fill-rule="nonzero"/><path fill="#adfcff" d="M 155.957031 72.6875 L 146.425781 82.21875 L 146.425781 79.597656 L 153.339844 72.6875 Z M 155.957031 72.6875 " fill-opacity="1" fill-rule="nonzero"/><path fill="#adfcff" d="M 160.6875 72.6875 L 146.558594 86.816406 L 146.558594 84.199219 L 158.066406 72.6875 Z M 160.6875 72.6875 " fill-opacity="1" fill-rule="nonzero"/><path fill="#adfcff" d="M 165.285156 72.6875 L 146.558594 91.414062 L 146.558594 88.796875 L 162.664062 72.6875 Z M 165.285156 72.6875 " fill-opacity="1" fill-rule="nonzero"/><path fill="#adfcff" d="M 169.882812 72.6875 L 146.558594 96.011719 L 146.558594 93.394531 L 167.261719 72.6875 Z M 169.882812 72.6875 " fill-opacity="1" fill-rule="nonzero"/><g clip-path="url(#5be397563e)"><path fill="#adfcff" d="M 170.871094 73.675781 L 170.871094 76.296875 L 150.164062 97.003906 L 147.546875 97.003906 Z M 170.871094 73.675781 " fill-opacity="1" fill-rule="nonzero"/></g><g clip-path="url(#ad5bd536a6)"><path fill="#adfcff" d="M 170.871094 78.273438 L 170.871094 80.894531 L 154.765625 97.003906 L 152.144531 97.003906 Z M 170.871094 78.273438 " fill-opacity="1" fill-rule="nonzero"/></g><g clip-path="url(#c11c07395d)"><path fill="#adfcff" d="M 170.871094 82.871094 L 170.871094 85.492188 L 159.363281 97.003906 L 156.742188 97.003906 Z M 170.871094 82.871094 " fill-opacity="1" fill-rule="nonzero"/></g><g clip-path="url(#a675f16898)"><path fill="#adfcff" d="M 170.742188 87.472656 L 170.742188 90.089844 L 163.832031 97.003906 L 161.210938 97.003906 Z M 170.742188 87.472656 " fill-opacity="1" fill-rule="nonzero"/></g><g clip-path="url(#fe429ed8be)"><path fill="#adfcff" d="M 165.808594 97.003906 L 170.742188 92.066406 L 170.742188 97.003906 Z M 165.808594 97.003906 " fill-opacity="1" fill-rule="nonzero"/></g><g clip-path="url(#7249f5f843)"><path fill="#ff66c4" d="M 182.898438 72.6875 C 183.699219 72.6875 184.488281 72.765625 185.273438 72.921875 C 186.054688 73.078125 186.816406 73.308594 187.554688 73.613281 C 188.289062 73.917969 188.992188 74.292969 189.65625 74.734375 C 190.320312 75.179688 190.933594 75.683594 191.496094 76.246094 C 192.0625 76.8125 192.566406 77.425781 193.007812 78.089844 C 193.453125 78.753906 193.828125 79.453125 194.132812 80.191406 C 194.4375 80.929688 194.667969 81.691406 194.824219 82.472656 C 194.980469 83.257812 195.058594 84.046875 195.058594 84.84375 C 195.058594 85.644531 194.980469 86.433594 194.824219 87.214844 C 194.667969 88 194.4375 88.761719 194.132812 89.496094 C 193.828125 90.234375 193.453125 90.933594 193.007812 91.597656 C 192.566406 92.261719 192.0625 92.878906 191.496094 93.441406 C 190.933594 94.007812 190.320312 94.511719 189.65625 94.953125 C 188.992188 95.398438 188.289062 95.773438 187.554688 96.078125 C 186.816406 96.382812 186.054688 96.613281 185.273438 96.769531 C 184.488281 96.925781 183.699219 97.003906 182.898438 97.003906 C 182.101562 97.003906 181.3125 96.925781 180.527344 96.769531 C 179.746094 96.613281 178.984375 96.382812 178.246094 96.078125 C 177.511719 95.773438 176.808594 95.398438 176.144531 94.953125 C 175.480469 94.511719 174.867188 94.007812 174.304688 93.441406 C 173.738281 92.878906 173.234375 92.261719 172.792969 91.597656 C 172.347656 90.933594 171.972656 90.234375 171.667969 89.496094 C 171.363281 88.761719 171.132812 88 170.976562 87.214844 C 170.820312 86.433594 170.742188 85.644531 170.742188 84.84375 C 170.742188 84.046875 170.820312 83.257812 170.976562 82.472656 C 171.132812 81.691406 171.363281 80.929688 171.667969 80.191406 C 171.972656 79.453125 172.347656 78.753906 172.792969 78.089844 C 173.234375 77.425781 173.738281 76.8125 174.304688 76.246094 C 174.867188 75.683594 175.480469 75.179688 176.144531 74.734375 C 176.808594 74.292969 177.511719 73.917969 178.246094 73.613281 C 178.984375 73.308594 179.746094 73.078125 180.527344 72.921875 C 181.3125 72.765625 182.101562 72.6875 182.898438 72.6875 Z M 182.898438 72.6875 " fill-opacity="1" fill-rule="nonzero"/></g><g clip-path="url(#1d0263c827)"><path fill="#fed90e" d="M 61.972656 48.5 C 62.769531 48.5 63.558594 48.578125 64.34375 48.734375 C 65.125 48.890625 65.886719 49.121094 66.625 49.425781 C 67.363281 49.730469 68.0625 50.105469 68.726562 50.550781 C 69.390625 50.992188 70.003906 51.496094 70.566406 52.0625 C 71.132812 52.625 71.636719 53.242188 72.082031 53.90625 C 72.523438 54.566406 72.898438 55.269531 73.203125 56.007812 C 73.507812 56.742188 73.738281 57.503906 73.894531 58.289062 C 74.050781 59.070312 74.128906 59.859375 74.128906 60.660156 C 74.128906 61.457031 74.050781 62.246094 73.894531 63.03125 C 73.738281 63.8125 73.507812 64.574219 73.203125 65.3125 C 72.898438 66.050781 72.523438 66.75 72.082031 67.414062 C 71.636719 68.078125 71.132812 68.691406 70.566406 69.253906 C 70.003906 69.820312 69.390625 70.324219 68.726562 70.769531 C 68.0625 71.210938 67.363281 71.585938 66.625 71.890625 C 65.886719 72.195312 65.125 72.425781 64.34375 72.582031 C 63.558594 72.738281 62.769531 72.816406 61.972656 72.816406 C 61.171875 72.816406 60.382812 72.738281 59.597656 72.582031 C 58.816406 72.425781 58.054688 72.195312 57.320312 71.890625 C 56.582031 71.585938 55.878906 71.210938 55.21875 70.769531 C 54.554688 70.324219 53.9375 69.820312 53.375 69.253906 C 52.808594 68.691406 52.304688 68.078125 51.863281 67.414062 C 51.417969 66.75 51.042969 66.050781 50.738281 65.3125 C 50.433594 64.574219 50.203125 63.8125 50.046875 63.03125 C 49.890625 62.246094 49.8125 61.457031 49.8125 60.660156 C 49.8125 59.859375 49.890625 59.070312 50.046875 58.289062 C 50.203125 57.503906 50.433594 56.742188 50.738281 56.007812 C 51.042969 55.269531 51.417969 54.566406 51.863281 53.90625 C 52.304688 53.242188 52.808594 52.625 53.375 52.0625 C 53.9375 51.496094 54.554688 50.992188 55.21875 50.550781 C 55.878906 50.105469 56.582031 49.730469 57.320312 49.425781 C 58.054688 49.121094 58.816406 48.890625 59.597656 48.734375 C 60.382812 48.578125 61.171875 48.5 61.972656 48.5 Z M 61.972656 48.5 " fill-opacity="1" fill-rule="nonzero"/></g><g clip-path="url(#35864215f5)"><path fill="#ff66c4" d="M 98.183594 48.5 L 122.5 48.5 L 122.5 72.816406 C 109.070312 72.816406 98.183594 61.929688 98.183594 48.5 Z M 98.183594 48.5 " fill-opacity="1" fill-rule="nonzero"/></g><g clip-path="url(#a10566dc8b)"><path fill="#adfcff" d="M 122.371094 48.5 C 135.800781 48.5 146.6875 59.386719 146.6875 72.816406 C 133.257812 72.816406 122.371094 61.929688 122.371094 48.5 Z M 122.371094 48.5 " fill-opacity="1" fill-rule="nonzero"/></g><g clip-path="url(#9d0e5eceb6)"><path fill="#fed90e" d="M 170.871094 48.5 L 170.871094 72.816406 L 146.558594 72.816406 C 146.558594 59.386719 157.441406 48.5 170.871094 48.5 Z M 170.871094 48.5 " fill-opacity="1" fill-rule="nonzero"/></g><g clip-path="url(#f96ec743f4)"><path fill="#8c52ff" d="M 170.742188 48.5 L 195.058594 72.816406 L 170.742188 72.816406 Z M 170.742188 48.5 " fill-opacity="1" fill-rule="nonzero"/></g><g clip-path="url(#dd1644af7e)"><path fill="#c1ff72" d="M 98.183594 48.5 L 98.183594 24.1875 L 122.5 24.1875 C 122.5 37.613281 111.613281 48.5 98.183594 48.5 Z M 98.183594 48.5 " fill-opacity="1" fill-rule="nonzero"/></g><path fill="#ff5757" d="M 122.371094 0 C 135.800781 0 146.6875 10.886719 146.6875 24.316406 L 122.371094 24.316406 Z M 122.371094 0 " fill-opacity="1" fill-rule="nonzero"/><path fill="#ff914d" d="M 170.871094 24.316406 L 146.558594 24.316406 L 146.558594 0 Z M 170.871094 24.316406 " fill-opacity="1" fill-rule="nonzero"/><g clip-path="url(#548da46dfa)"><path fill="#5ce1e6" d="M 190.125 48.5 L 195.058594 43.566406 L 195.058594 48.5 Z M 190.125 48.5 " fill-opacity="1" fill-rule="nonzero"/></g><g clip-path="url(#c0774c82e4)"><path fill="#5ce1e6" d="M 185.527344 48.5 L 195.058594 38.96875 L 195.058594 41.589844 L 188.144531 48.5 Z M 185.527344 48.5 " fill-opacity="1" fill-rule="nonzero"/></g><g clip-path="url(#a8f9720077)"><path fill="#5ce1e6" d="M 180.929688 48.5 L 195.058594 34.371094 L 195.058594 36.992188 L 183.546875 48.5 Z M 180.929688 48.5 " fill-opacity="1" fill-rule="nonzero"/></g><g clip-path="url(#466b6d9d6b)"><path fill="#5ce1e6" d="M 176.328125 48.5 L 195.058594 29.773438 L 195.058594 32.394531 L 178.949219 48.5 Z M 176.328125 48.5 " fill-opacity="1" fill-rule="nonzero"/></g><g clip-path="url(#affc3c4226)"><path fill="#5ce1e6" d="M 171.730469 48.5 L 195.058594 25.175781 L 195.058594 27.792969 L 174.351562 48.5 Z M 171.730469 48.5 " fill-opacity="1" fill-rule="nonzero"/></g><path fill="#5ce1e6" d="M 170.742188 47.511719 L 170.742188 44.890625 L 191.449219 24.1875 L 194.070312 24.1875 Z M 170.742188 47.511719 " fill-opacity="1" fill-rule="nonzero"/><path fill="#5ce1e6" d="M 189.472656 24.1875 L 170.742188 42.914062 L 170.742188 40.292969 L 186.851562 24.1875 Z M 189.472656 24.1875 " fill-opacity="1" fill-rule="nonzero"/><path fill="#5ce1e6" d="M 184.871094 24.316406 L 170.742188 38.445312 L 170.742188 35.824219 L 182.253906 24.316406 Z M 184.871094 24.316406 " fill-opacity="1" fill-rule="nonzero"/><path fill="#5ce1e6" d="M 180.273438 24.316406 L 170.742188 33.847656 L 170.742188 31.226562 L 177.65625 24.316406 Z M 180.273438 24.316406 " fill-opacity="1" fill-rule="nonzero"/><path fill="#5ce1e6" d="M 175.675781 24.316406 L 170.742188 29.25 L 170.742188 24.316406 Z M 175.675781 24.316406 " fill-opacity="1" fill-rule="nonzero"/><g clip-path="url(#5b2b727970)"><path fill="#ff5757" d="M 170.871094 48.5 L 146.558594 24.1875 L 170.871094 24.1875 Z M 170.871094 48.5 " fill-opacity="1" fill-rule="nonzero"/></g><g clip-path="url(#f553b7443d)"><path fill="#c1ff72" d="M 182.898438 24.316406 C 182.101562 24.316406 181.3125 24.238281 180.527344 24.082031 C 179.746094 23.925781 178.984375 23.695312 178.246094 23.390625 C 177.511719 23.085938 176.808594 22.710938 176.144531 22.265625 C 175.480469 21.824219 174.867188 21.320312 174.304688 20.753906 C 173.738281 20.191406 173.234375 19.574219 172.792969 18.914062 C 172.347656 18.25 171.972656 17.546875 171.667969 16.808594 C 171.363281 16.074219 171.132812 15.3125 170.976562 14.53125 C 170.820312 13.746094 170.742188 12.957031 170.742188 12.15625 C 170.742188 11.359375 170.820312 10.570312 170.976562 9.785156 C 171.132812 9.003906 171.363281 8.242188 171.667969 7.503906 C 171.972656 6.769531 172.347656 6.066406 172.792969 5.402344 C 173.234375 4.738281 173.738281 4.125 174.304688 3.5625 C 174.867188 2.996094 175.480469 2.492188 176.144531 2.050781 C 176.808594 1.605469 177.511719 1.230469 178.246094 0.925781 C 178.984375 0.621094 179.746094 0.390625 180.527344 0.234375 C 181.3125 0.078125 182.101562 0 182.898438 0 C 183.699219 0 184.488281 0.078125 185.273438 0.234375 C 186.054688 0.390625 186.816406 0.621094 187.554688 0.925781 C 188.289062 1.230469 188.992188 1.605469 189.65625 2.050781 C 190.320312 2.492188 190.933594 2.996094 191.496094 3.5625 C 192.0625 4.125 192.566406 4.738281 193.007812 5.402344 C 193.453125 6.066406 193.828125 6.769531 194.132812 7.503906 C 194.4375 8.242188 194.667969 9.003906 194.824219 9.785156 C 194.980469 10.570312 195.058594 11.359375 195.058594 12.15625 C 195.058594 12.957031 194.980469 13.746094 194.824219 14.53125 C 194.667969 15.3125 194.4375 16.074219 194.132812 16.808594 C 193.828125 17.546875 193.453125 18.25 193.007812 18.914062 C 192.566406 19.574219 192.0625 20.191406 191.496094 20.753906 C 190.933594 21.320312 190.320312 21.824219 189.65625 22.265625 C 188.992188 22.710938 188.289062 23.085938 187.554688 23.390625 C 186.816406 23.695312 186.054688 23.925781 185.273438 24.082031 C 184.488281 24.238281 183.699219 24.316406 182.898438 24.316406 Z M 182.898438 24.316406 " fill-opacity="1" fill-rule="nonzero"/></g><path fill="#5ce1e6" d="M 117.566406 24.316406 L 122.5 19.382812 L 122.5 24.316406 Z M 117.566406 24.316406 " fill-opacity="1" fill-rule="nonzero"/><path fill="#5ce1e6" d="M 112.96875 24.316406 L 122.5 14.785156 L 122.5 17.402344 L 115.589844 24.316406 Z M 112.96875 24.316406 " fill-opacity="1" fill-rule="nonzero"/><path fill="#5ce1e6" d="M 108.371094 24.316406 L 122.5 10.183594 L 122.5 12.804688 L 110.988281 24.316406 Z M 108.371094 24.316406 " fill-opacity="1" fill-rule="nonzero"/><path fill="#5ce1e6" d="M 103.773438 24.316406 L 122.5 5.585938 L 122.5 8.207031 L 106.390625 24.316406 Z M 103.773438 24.316406 " fill-opacity="1" fill-rule="nonzero"/><path fill="#5ce1e6" d="M 99.175781 24.316406 L 122.5 0.988281 L 122.5 3.609375 L 101.792969 24.316406 Z M 99.175781 24.316406 " fill-opacity="1" fill-rule="nonzero"/><path fill="#5ce1e6" d="M 98.183594 23.324219 L 98.183594 20.707031 L 118.890625 0 L 121.511719 0 Z M 98.183594 23.324219 " fill-opacity="1" fill-rule="nonzero"/><path fill="#5ce1e6" d="M 98.183594 18.730469 L 98.183594 16.109375 L 114.292969 0 L 116.914062 0 Z M 98.183594 18.730469 " fill-opacity="1" fill-rule="nonzero"/><path fill="#5ce1e6" d="M 98.183594 14.128906 L 98.183594 11.511719 L 109.695312 0 L 112.316406 0 Z M 98.183594 14.128906 " fill-opacity="1" fill-rule="nonzero"/><path fill="#5ce1e6" d="M 98.183594 9.53125 L 98.183594 6.910156 L 105.097656 0 L 107.71875 0 Z M 98.183594 9.53125 " fill-opacity="1" fill-rule="nonzero"/><path fill="#5ce1e6" d="M 103.121094 0 L 98.183594 4.933594 L 98.183594 0 Z M 103.121094 0 " fill-opacity="1" fill-rule="nonzero"/><path fill="#ff914d" d="M 98.316406 24.316406 C 84.886719 24.316406 74 13.429688 74 0 C 87.429688 0 98.316406 10.886719 98.316406 24.316406 Z M 98.316406 24.316406 " fill-opacity="1" fill-rule="nonzero"/><path fill="#c1ff72" d="M 49.8125 24.316406 L 49.8125 0 L 74.128906 0 C 74.128906 13.429688 63.242188 24.316406 49.8125 24.316406 Z M 49.8125 24.316406 " fill-opacity="1" fill-rule="nonzero"/><path fill="#ff5757" d="M 45.136719 24.316406 L 50.074219 19.382812 L 50.074219 24.316406 Z M 45.136719 24.316406 " fill-opacity="1" fill-rule="nonzero"/><path fill="#ff5757" d="M 40.542969 24.316406 L 50.074219 14.785156 L 50.074219 17.402344 L 43.160156 24.316406 Z M 40.542969 24.316406 " fill-opacity="1" fill-rule="nonzero"/><path fill="#ff5757" d="M 35.8125 24.316406 L 49.941406 10.183594 L 49.941406 12.804688 L 38.433594 24.316406 Z M 35.8125 24.316406 " fill-opacity="1" fill-rule="nonzero"/><path fill="#ff5757" d="M 31.214844 24.316406 L 49.941406 5.585938 L 49.941406 8.207031 L 33.835938 24.316406 Z M 31.214844 24.316406 " fill-opacity="1" fill-rule="nonzero"/><path fill="#ff5757" d="M 26.617188 24.316406 L 49.941406 0.988281 L 49.941406 3.609375 L 29.238281 24.316406 Z M 26.617188 24.316406 " fill-opacity="1" fill-rule="nonzero"/><path fill="#ff5757" d="M 25.628906 23.324219 L 25.628906 20.707031 L 46.335938 0 L 48.953125 0 Z M 25.628906 23.324219 " fill-opacity="1" fill-rule="nonzero"/><path fill="#ff5757" d="M 25.628906 18.730469 L 25.628906 16.109375 L 41.738281 0 L 44.355469 0 Z M 25.628906 18.730469 " fill-opacity="1" fill-rule="nonzero"/><path fill="#ff5757" d="M 25.628906 14.128906 L 25.628906 11.511719 L 37.136719 0 L 39.757812 0 Z M 25.628906 14.128906 " fill-opacity="1" fill-rule="nonzero"/><path fill="#ff5757" d="M 25.757812 9.53125 L 25.757812 6.910156 L 32.667969 0 L 35.289062 0 Z M 25.757812 9.53125 " fill-opacity="1" fill-rule="nonzero"/><path fill="#ff5757" d="M 30.691406 0 L 25.757812 4.933594 L 25.757812 0 Z M 30.691406 0 " fill-opacity="1" fill-rule="nonzero"/><g clip-path="url(#4d9137969c)"><path fill="#5ce1e6" d="M 13.601562 24.316406 C 12.800781 24.316406 12.011719 24.238281 11.226562 24.082031 C 10.445312 23.925781 9.683594 23.695312 8.945312 23.390625 C 8.210938 23.085938 7.507812 22.710938 6.84375 22.265625 C 6.179688 21.824219 5.566406 21.320312 5.003906 20.753906 C 4.4375 20.191406 3.933594 19.574219 3.492188 18.914062 C 3.046875 18.25 2.671875 17.546875 2.367188 16.808594 C 2.0625 16.074219 1.832031 15.3125 1.675781 14.53125 C 1.519531 13.746094 1.441406 12.957031 1.441406 12.15625 C 1.441406 11.359375 1.519531 10.570312 1.675781 9.785156 C 1.832031 9.003906 2.0625 8.242188 2.367188 7.503906 C 2.671875 6.769531 3.046875 6.066406 3.492188 5.402344 C 3.933594 4.738281 4.4375 4.125 5.003906 3.5625 C 5.566406 2.996094 6.179688 2.492188 6.84375 2.050781 C 7.507812 1.605469 8.210938 1.230469 8.945312 0.925781 C 9.683594 0.621094 10.445312 0.390625 11.226562 0.234375 C 12.011719 0.078125 12.800781 0 13.601562 0 C 14.398438 0 15.1875 0.078125 15.972656 0.234375 C 16.753906 0.390625 17.515625 0.621094 18.253906 0.925781 C 18.988281 1.230469 19.691406 1.605469 20.355469 2.050781 C 21.019531 2.492188 21.632812 2.996094 22.195312 3.5625 C 22.761719 4.125 23.265625 4.738281 23.707031 5.402344 C 24.152344 6.066406 24.527344 6.769531 24.832031 7.503906 C 25.136719 8.242188 25.367188 9.003906 25.523438 9.785156 C 25.679688 10.570312 25.757812 11.359375 25.757812 12.15625 C 25.757812 12.957031 25.679688 13.746094 25.523438 14.53125 C 25.367188 15.3125 25.136719 16.074219 24.832031 16.808594 C 24.527344 17.546875 24.152344 18.25 23.707031 18.914062 C 23.265625 19.574219 22.761719 20.191406 22.195312 20.753906 C 21.632812 21.320312 21.019531 21.824219 20.355469 22.265625 C 19.691406 22.710938 18.988281 23.085938 18.253906 23.390625 C 17.515625 23.695312 16.753906 23.925781 15.972656 24.082031 C 15.1875 24.238281 14.398438 24.316406 13.601562 24.316406 Z M 13.601562 24.316406 " fill-opacity="1" fill-rule="nonzero"/></g><g clip-path="url(#4b22d21d9d)"><path fill="#ff914d" d="M 134.527344 48.5 C 133.730469 48.5 132.941406 48.421875 132.15625 48.269531 C 131.375 48.113281 130.613281 47.882812 129.875 47.574219 C 129.140625 47.269531 128.4375 46.894531 127.773438 46.453125 C 127.109375 46.007812 126.496094 45.503906 125.933594 44.941406 C 125.367188 44.375 124.863281 43.761719 124.421875 43.097656 C 123.976562 42.433594 123.601562 41.734375 123.296875 40.996094 C 122.992188 40.257812 122.761719 39.5 122.605469 38.714844 C 122.449219 37.933594 122.371094 37.140625 122.371094 36.34375 C 122.371094 35.546875 122.449219 34.753906 122.605469 33.972656 C 122.761719 33.1875 122.992188 32.429688 123.296875 31.691406 C 123.601562 30.953125 123.976562 30.253906 124.421875 29.589844 C 124.863281 28.925781 125.367188 28.3125 125.933594 27.746094 C 126.496094 27.183594 127.109375 26.679688 127.773438 26.234375 C 128.4375 25.792969 129.140625 25.417969 129.875 25.109375 C 130.613281 24.804688 131.375 24.574219 132.15625 24.417969 C 132.941406 24.265625 133.730469 24.1875 134.527344 24.1875 C 135.328125 24.1875 136.117188 24.265625 136.902344 24.417969 C 137.683594 24.574219 138.445312 24.804688 139.179688 25.109375 C 139.917969 25.417969 140.621094 25.792969 141.285156 26.234375 C 141.945312 26.679688 142.5625 27.183594 143.125 27.746094 C 143.691406 28.3125 144.195312 28.925781 144.636719 29.589844 C 145.082031 30.253906 145.457031 30.953125 145.761719 31.691406 C 146.066406 32.429688 146.296875 33.1875 146.453125 33.972656 C 146.609375 34.753906 146.6875 35.546875 146.6875 36.34375 C 146.6875 37.140625 146.609375 37.933594 146.453125 38.714844 C 146.296875 39.5 146.066406 40.257812 145.761719 40.996094 C 145.457031 41.734375 145.082031 42.433594 144.636719 43.097656 C 144.195312 43.761719 143.691406 44.375 143.125 44.941406 C 142.5625 45.503906 141.945312 46.007812 141.285156 46.453125 C 140.621094 46.894531 139.917969 47.269531 139.179688 47.574219 C 138.445312 47.882812 137.683594 48.113281 136.902344 48.269531 C 136.117188 48.421875 135.328125 48.5 134.527344 48.5 Z M 134.527344 48.5 " fill-opacity="1" fill-rule="nonzero"/></g><g clip-path="url(#b93c7621b1)"><path fill="#5ce1e6" d="M 98.316406 48.5 L 74 48.5 L 74 24.1875 C 87.429688 24.1875 98.316406 35.070312 98.316406 48.5 Z M 98.316406 48.5 " fill-opacity="1" fill-rule="nonzero"/></g><g clip-path="url(#e7ca2e5eed)"><path fill="#ff5757" d="M 74.128906 48.5 C 60.699219 48.5 49.8125 37.613281 49.8125 24.1875 C 63.242188 24.1875 74.128906 35.070312 74.128906 48.5 Z M 74.128906 48.5 " fill-opacity="1" fill-rule="nonzero"/></g><g clip-path="url(#07814e5541)"><path fill="#ff914d" d="M 25.628906 48.5 L 25.628906 24.1875 L 49.941406 24.1875 C 49.941406 37.613281 39.058594 48.5 25.628906 48.5 Z M 25.628906 48.5 " fill-opacity="1" fill-rule="nonzero"/></g><g clip-path="url(#d6ed1ee8da)"><path fill="#c1ff72" d="M 25.757812 48.5 L 1.441406 24.1875 L 25.757812 24.1875 Z M 25.757812 48.5 " fill-opacity="1" fill-rule="nonzero"/></g></svg>