<svg xmlns="http://www.w3.org/2000/svg" xmlns:xlink="http://www.w3.org/1999/xlink" width="500" zoomAndPan="magnify" viewBox="0 0 375 374.999991" height="500" preserveAspectRatio="xMidYMid meet" version="1.0"><defs><clipPath id="59d1a88139"><path d="M 187.5 0 C 83.945312 0 0 83.945312 0 187.5 C 0 291.054688 83.945312 375 187.5 375 C 291.054688 375 375 291.054688 375 187.5 C 375 83.945312 291.054688 0 187.5 0 Z M 187.5 0 " clip-rule="nonzero"/></clipPath><clipPath id="b93a1ea4e0"><path d="M 20.734375 134 L 68 134 L 68 143 L 20.734375 143 Z M 20.734375 134 " clip-rule="nonzero"/></clipPath></defs><g clip-path="url(#59d1a88139)"><rect x="-37.5" width="450" fill="#ffffff" y="-37.499999" height="449.999989" fill-opacity="1"/><path stroke-linecap="butt" transform="matrix(0.75, 0, 0, 0.75, 0.0000045, 0)" fill="none" stroke-linejoin="miter" d="M 249.999994 0 C 111.927078 0 -0.000006 111.927084 -0.000006 250 C -0.000006 388.072917 111.927078 500.000001 249.999994 500.000001 C 388.072911 500.000001 499.999995 388.072917 499.999995 250 C 499.999995 111.927084 388.072911 0 249.999994 0 Z M 249.999994 0 " stroke="#d9d9d9" stroke-width="2" stroke-opacity="1" stroke-miterlimit="4"/></g><path fill="#5271ff" d="M 92.855469 139.90625 L 49.558594 160.683594 C 42.289062 164.171875 39.625 173.183594 43.824219 180.066406 L 140.597656 338.515625 C 143.953125 344.011719 150.695312 346.40625 156.765625 344.257812 L 304.285156 292.066406 C 313.144531 288.933594 316.246094 277.980469 310.339844 270.667969 L 303.488281 262.175781 L 164.519531 311.453125 L 155.707031 310.464844 L 151.550781 305.277344 Z M 92.855469 139.90625 " fill-opacity="1" fill-rule="nonzero"/><path fill="#000000" d="M 106.382812 99.191406 C 105.433594 99.191406 104.484375 98.988281 103.605469 98.574219 C 101.941406 97.792969 100.675781 96.339844 100.136719 94.582031 L 94.847656 77.386719 C 93.832031 74.085938 95.570312 70.554688 98.808594 69.347656 L 181.417969 38.558594 C 184.28125 37.492188 187.5625 38.589844 189.207031 41.171875 L 197.128906 53.613281 C 198.167969 55.242188 198.429688 57.234375 197.847656 59.074219 C 197.273438 60.921875 195.914062 62.402344 194.128906 63.148438 L 108.890625 98.6875 C 108.085938 99.023438 107.230469 99.191406 106.378906 99.191406 Z M 99.941406 72.386719 C 98.3125 72.996094 97.433594 74.773438 97.949219 76.4375 L 103.238281 93.632812 C 103.515625 94.527344 104.132812 95.242188 104.984375 95.640625 C 105.835938 96.035156 106.78125 96.058594 107.644531 95.699219 L 192.886719 60.15625 C 193.78125 59.78125 194.464844 59.035156 194.757812 58.105469 C 195.050781 57.175781 194.917969 56.175781 194.394531 55.355469 L 186.472656 42.914062 C 185.648438 41.613281 183.992188 41.054688 182.550781 41.601562 L 99.941406 72.390625 Z M 99.941406 72.386719 " fill-opacity="1" fill-rule="nonzero"/><path fill="#000000" d="M 161.140625 313.664062 C 156.292969 313.664062 151.742188 310.648438 150.027344 305.824219 L 77.542969 101.613281 C 75.386719 95.539062 78.414062 88.976562 84.433594 86.671875 L 97.71875 81.585938 C 98.554688 81.265625 99.492188 81.683594 99.8125 82.519531 C 100.132812 83.351562 99.714844 84.289062 98.875 84.613281 L 85.589844 89.699219 C 81.230469 91.367188 79.03125 96.128906 80.597656 100.53125 L 153.085938 304.738281 C 154.660156 309.175781 159.550781 311.5 163.984375 309.929688 L 320.386719 254.476562 C 322.773438 253.628906 324.648438 251.777344 325.53125 249.40625 C 326.417969 247.03125 326.203125 244.40625 324.949219 242.203125 L 214.433594 48.148438 C 212.332031 44.457031 207.925781 42.878906 203.960938 44.398438 L 191.894531 49.015625 C 191.054688 49.332031 190.125 48.917969 189.800781 48.082031 C 189.480469 47.246094 189.898438 46.308594 190.738281 45.988281 L 202.804688 41.371094 C 208.277344 39.277344 214.351562 41.453125 217.253906 46.542969 L 327.769531 240.589844 C 329.503906 243.628906 329.792969 247.253906 328.578125 250.527344 C 327.359375 253.804688 324.769531 256.351562 321.472656 257.523438 L 165.074219 312.980469 C 163.777344 313.4375 162.449219 313.660156 161.148438 313.660156 Z M 161.140625 313.664062 " fill-opacity="1" fill-rule="nonzero"/><path fill="#000000" d="M 167.746094 299.847656 C 162.875 299.847656 158.300781 296.816406 156.578125 291.972656 L 91.269531 107.988281 C 89.105469 101.882812 92.144531 95.292969 98.195312 92.976562 L 100.859375 91.957031 C 101.695312 91.636719 102.632812 92.054688 102.957031 92.890625 C 103.277344 93.726562 102.859375 94.664062 102.019531 94.984375 L 99.351562 96.003906 C 94.957031 97.6875 92.75 102.472656 94.324219 106.90625 L 159.632812 290.886719 C 161.214844 295.351562 166.140625 297.695312 170.601562 296.113281 L 304.539062 248.621094 C 306.945312 247.769531 308.832031 245.90625 309.71875 243.515625 C 310.605469 241.128906 310.394531 238.484375 309.132812 236.265625 L 209.652344 61.597656 C 207.539062 57.882812 203.105469 56.296875 199.113281 57.824219 L 197.109375 58.589844 C 196.269531 58.910156 195.332031 58.492188 195.011719 57.652344 C 194.695312 56.816406 195.113281 55.878906 195.949219 55.5625 L 197.957031 54.796875 C 203.453125 52.691406 209.554688 54.878906 212.472656 59.992188 L 311.953125 234.664062 C 313.691406 237.714844 313.984375 241.355469 312.757812 244.648438 C 311.535156 247.941406 308.933594 250.5 305.621094 251.675781 L 171.6875 299.167969 C 170.386719 299.632812 169.050781 299.847656 167.742188 299.847656 Z M 167.746094 299.847656 " fill-opacity="1" fill-rule="nonzero"/><path fill="#5271ff" d="M 117.9375 109.242188 L 128.960938 104.484375 C 129.359375 104.308594 129.769531 104.179688 130.195312 104.085938 C 130.621094 103.996094 131.050781 103.949219 131.484375 103.941406 C 131.917969 103.933594 132.351562 103.972656 132.777344 104.050781 C 133.203125 104.128906 133.621094 104.246094 134.023438 104.40625 C 134.429688 104.566406 134.8125 104.765625 135.175781 105 C 135.542969 105.238281 135.878906 105.507812 136.191406 105.808594 C 136.503906 106.113281 136.78125 106.441406 137.027344 106.800781 C 137.277344 107.15625 137.484375 107.535156 137.65625 107.933594 L 140.648438 114.859375 C 140.820312 115.257812 140.949219 115.667969 141.042969 116.09375 C 141.132812 116.519531 141.179688 116.949219 141.1875 117.382812 C 141.195312 117.816406 141.15625 118.246094 141.078125 118.675781 C 141 119.101562 140.882812 119.519531 140.722656 119.921875 C 140.5625 120.324219 140.363281 120.710938 140.128906 121.074219 C 139.890625 121.4375 139.621094 121.777344 139.320312 122.089844 C 139.015625 122.402344 138.6875 122.679688 138.328125 122.925781 C 137.972656 123.171875 137.59375 123.382812 137.195312 123.554688 L 126.171875 128.3125 C 125.773438 128.484375 125.363281 128.617188 124.9375 128.707031 C 124.511719 128.800781 124.082031 128.847656 123.648438 128.855469 C 123.214844 128.859375 122.78125 128.824219 122.355469 128.746094 C 121.929688 128.667969 121.511719 128.546875 121.109375 128.386719 C 120.703125 128.226562 120.320312 128.03125 119.957031 127.792969 C 119.589844 127.558594 119.253906 127.289062 118.941406 126.984375 C 118.628906 126.683594 118.351562 126.355469 118.105469 125.996094 C 117.855469 125.636719 117.648438 125.261719 117.476562 124.859375 L 114.488281 117.9375 C 114.3125 117.539062 114.183594 117.128906 114.089844 116.703125 C 114 116.277344 113.953125 115.847656 113.945312 115.414062 C 113.9375 114.980469 113.976562 114.546875 114.054688 114.121094 C 114.132812 113.695312 114.25 113.277344 114.410156 112.875 C 114.570312 112.46875 114.769531 112.085938 115.003906 111.722656 C 115.242188 111.355469 115.511719 111.019531 115.8125 110.707031 C 116.117188 110.394531 116.445312 110.117188 116.804688 109.867188 C 117.160156 109.621094 117.539062 109.414062 117.9375 109.242188 Z M 117.9375 109.242188 " fill-opacity="1" fill-rule="nonzero"/><path fill="#5271ff" d="M 136.722656 152.75 L 147.746094 147.992188 C 148.144531 147.820312 148.554688 147.6875 148.980469 147.597656 C 149.40625 147.507812 149.835938 147.457031 150.269531 147.453125 C 150.703125 147.445312 151.132812 147.480469 151.5625 147.558594 C 151.988281 147.636719 152.40625 147.757812 152.808594 147.917969 C 153.210938 148.078125 153.597656 148.277344 153.960938 148.511719 C 154.324219 148.746094 154.664062 149.015625 154.976562 149.320312 C 155.289062 149.621094 155.566406 149.953125 155.8125 150.308594 C 156.058594 150.667969 156.269531 151.046875 156.441406 151.445312 L 159.429688 158.367188 C 159.601562 158.765625 159.734375 159.179688 159.824219 159.605469 C 159.917969 160.027344 159.964844 160.457031 159.972656 160.890625 C 159.976562 161.328125 159.941406 161.757812 159.863281 162.183594 C 159.785156 162.613281 159.667969 163.027344 159.507812 163.429688 C 159.347656 163.835938 159.148438 164.21875 158.910156 164.585938 C 158.675781 164.949219 158.40625 165.289062 158.105469 165.597656 C 157.800781 165.910156 157.472656 166.191406 157.113281 166.4375 C 156.753906 166.683594 156.378906 166.894531 155.980469 167.066406 L 144.957031 171.824219 C 144.558594 171.996094 144.144531 172.128906 143.722656 172.21875 C 143.296875 172.308594 142.867188 172.359375 142.433594 172.363281 C 142 172.371094 141.566406 172.335938 141.140625 172.257812 C 140.710938 172.179688 140.296875 172.058594 139.894531 171.898438 C 139.488281 171.738281 139.105469 171.539062 138.742188 171.304688 C 138.375 171.066406 138.039062 170.796875 137.726562 170.496094 C 137.414062 170.195312 137.136719 169.863281 136.886719 169.503906 C 136.640625 169.148438 136.433594 168.769531 136.261719 168.371094 L 133.269531 161.449219 C 133.097656 161.046875 132.96875 160.636719 132.875 160.210938 C 132.785156 159.789062 132.734375 159.359375 132.730469 158.921875 C 132.722656 158.488281 132.757812 158.058594 132.835938 157.628906 C 132.917969 157.203125 133.035156 156.789062 133.195312 156.382812 C 133.355469 155.980469 133.554688 155.597656 133.789062 155.230469 C 134.027344 154.867188 134.296875 154.527344 134.597656 154.214844 C 134.902344 153.90625 135.230469 153.625 135.589844 153.378906 C 135.945312 153.132812 136.324219 152.921875 136.722656 152.75 Z M 136.722656 152.75 " fill-opacity="1" fill-rule="nonzero"/><path fill="#5271ff" d="M 159.664062 205.890625 L 170.6875 201.128906 C 171.085938 200.957031 171.496094 200.828125 171.921875 200.734375 C 172.347656 200.644531 172.777344 200.597656 173.210938 200.589844 C 173.644531 200.582031 174.078125 200.617188 174.503906 200.699219 C 174.929688 200.777344 175.347656 200.894531 175.75 201.054688 C 176.152344 201.214844 176.539062 201.414062 176.902344 201.648438 C 177.269531 201.886719 177.605469 202.15625 177.917969 202.457031 C 178.230469 202.761719 178.507812 203.089844 178.753906 203.449219 C 179.003906 203.804688 179.210938 204.183594 179.382812 204.582031 L 182.371094 211.507812 C 182.546875 211.90625 182.675781 212.316406 182.769531 212.742188 C 182.859375 213.167969 182.90625 213.597656 182.914062 214.03125 C 182.921875 214.464844 182.882812 214.894531 182.804688 215.324219 C 182.726562 215.75 182.609375 216.164062 182.449219 216.570312 C 182.289062 216.972656 182.089844 217.359375 181.851562 217.722656 C 181.617188 218.085938 181.347656 218.425781 181.046875 218.738281 C 180.742188 219.050781 180.414062 219.328125 180.054688 219.574219 C 179.699219 219.820312 179.320312 220.03125 178.921875 220.203125 L 167.898438 224.960938 C 167.5 225.132812 167.085938 225.265625 166.664062 225.355469 C 166.238281 225.449219 165.808594 225.496094 165.375 225.503906 C 164.941406 225.507812 164.507812 225.472656 164.082031 225.394531 C 163.65625 225.316406 163.238281 225.195312 162.835938 225.035156 C 162.429688 224.875 162.046875 224.679688 161.683594 224.441406 C 161.316406 224.207031 160.980469 223.9375 160.667969 223.632812 C 160.355469 223.332031 160.078125 223 159.828125 222.644531 C 159.582031 222.285156 159.375 221.90625 159.203125 221.507812 L 156.210938 214.585938 C 156.039062 214.1875 155.910156 213.773438 155.816406 213.351562 C 155.726562 212.925781 155.679688 212.496094 155.671875 212.0625 C 155.664062 211.628906 155.699219 211.195312 155.78125 210.769531 C 155.859375 210.339844 155.976562 209.925781 156.136719 209.523438 C 156.296875 209.117188 156.496094 208.734375 156.730469 208.371094 C 156.96875 208.003906 157.238281 207.667969 157.539062 207.355469 C 157.84375 207.042969 158.171875 206.765625 158.53125 206.515625 C 158.886719 206.269531 159.265625 206.0625 159.664062 205.890625 Z M 159.664062 205.890625 " fill-opacity="1" fill-rule="nonzero"/><path fill="#5271ff" d="M 178.222656 248.875 L 189.246094 244.117188 C 189.644531 243.945312 190.054688 243.8125 190.480469 243.722656 C 190.90625 243.632812 191.335938 243.582031 191.769531 243.578125 C 192.203125 243.570312 192.636719 243.605469 193.0625 243.683594 C 193.488281 243.761719 193.90625 243.882812 194.308594 244.042969 C 194.710938 244.203125 195.097656 244.402344 195.460938 244.636719 C 195.828125 244.871094 196.164062 245.140625 196.476562 245.445312 C 196.789062 245.746094 197.066406 246.078125 197.3125 246.433594 C 197.5625 246.792969 197.769531 247.171875 197.941406 247.570312 L 200.929688 254.492188 C 201.101562 254.890625 201.234375 255.304688 201.324219 255.730469 C 201.417969 256.152344 201.464844 256.582031 201.472656 257.015625 C 201.480469 257.453125 201.441406 257.882812 201.363281 258.308594 C 201.285156 258.738281 201.167969 259.152344 201.007812 259.558594 C 200.847656 259.960938 200.648438 260.34375 200.410156 260.710938 C 200.175781 261.074219 199.90625 261.414062 199.605469 261.722656 C 199.300781 262.035156 198.972656 262.316406 198.613281 262.5625 C 198.257812 262.808594 197.878906 263.019531 197.480469 263.191406 L 186.457031 267.949219 C 186.058594 268.121094 185.644531 268.253906 185.222656 268.34375 C 184.796875 268.433594 184.367188 268.484375 183.933594 268.488281 C 183.5 268.496094 183.066406 268.460938 182.640625 268.382812 C 182.210938 268.304688 181.796875 268.183594 181.394531 268.023438 C 180.988281 267.863281 180.605469 267.664062 180.242188 267.429688 C 179.875 267.191406 179.539062 266.925781 179.226562 266.621094 C 178.914062 266.320312 178.636719 265.988281 178.386719 265.632812 C 178.140625 265.273438 177.933594 264.894531 177.761719 264.496094 L 174.769531 257.574219 C 174.597656 257.175781 174.46875 256.761719 174.375 256.335938 C 174.285156 255.914062 174.238281 255.484375 174.230469 255.046875 C 174.222656 254.613281 174.257812 254.183594 174.339844 253.757812 C 174.417969 253.328125 174.535156 252.914062 174.695312 252.507812 C 174.855469 252.105469 175.054688 251.722656 175.289062 251.355469 C 175.527344 250.992188 175.796875 250.652344 176.097656 250.34375 C 176.402344 250.03125 176.730469 249.75 177.089844 249.503906 C 177.445312 249.257812 177.824219 249.046875 178.222656 248.875 Z M 178.222656 248.875 " fill-opacity="1" fill-rule="nonzero"/><path fill="#000000" d="M 125.769531 115.675781 C 127.523438 116.453125 129.277344 117.234375 131.035156 118.011719 C 132.453125 118.640625 134.066406 119.371094 135.179688 117.8125 C 136.042969 116.605469 136.398438 114.816406 136.972656 113.449219 C 137.65625 111.8125 138.402344 110.203125 139.203125 108.613281 C 142.265625 102.503906 146.082031 96.792969 150.566406 91.632812 C 151.929688 90.066406 149.648438 87.761719 148.277344 89.34375 C 144.214844 94.011719 140.636719 99.097656 137.679688 104.535156 C 136.222656 107.214844 134.925781 109.976562 133.757812 112.796875 C 133.46875 113.503906 133.1875 114.21875 132.914062 114.933594 C 132.886719 115 132.480469 115.992188 132.511719 116.007812 L 133.148438 115.417969 L 132.433594 115.101562 C 130.761719 114.359375 129.082031 113.617188 127.410156 112.875 C 125.519531 112.035156 123.867188 114.832031 125.773438 115.671875 Z M 125.769531 115.675781 " fill-opacity="1" fill-rule="nonzero"/><path fill="#000000" d="M 139.949219 160.921875 C 141.707031 161.699219 143.460938 162.476562 145.214844 163.253906 C 146.636719 163.882812 148.25 164.617188 149.359375 163.054688 C 150.222656 161.847656 150.582031 160.0625 151.152344 158.691406 C 151.835938 157.054688 152.585938 155.445312 153.382812 153.859375 C 156.449219 147.746094 160.265625 142.035156 164.75 136.878906 C 166.113281 135.308594 163.828125 133.007812 162.460938 134.585938 C 158.394531 139.253906 154.820312 144.339844 151.859375 149.777344 C 150.40625 152.457031 149.109375 155.21875 147.941406 158.039062 C 147.652344 158.746094 147.367188 159.460938 147.09375 160.175781 C 147.070312 160.242188 146.660156 161.234375 146.695312 161.25 L 147.332031 160.664062 L 146.617188 160.34375 C 144.941406 159.601562 143.265625 158.859375 141.589844 158.117188 C 139.699219 157.277344 138.046875 160.074219 139.953125 160.917969 Z M 139.949219 160.921875 " fill-opacity="1" fill-rule="nonzero"/><path fill="#000000" d="M 165.625 212.871094 C 167.382812 213.648438 169.136719 214.425781 170.890625 215.203125 C 172.3125 215.832031 173.925781 216.566406 175.039062 215.003906 C 175.902344 213.796875 176.257812 212.011719 176.828125 210.640625 C 177.511719 209.003906 178.261719 207.394531 179.058594 205.808594 C 182.125 199.695312 185.941406 193.984375 190.425781 188.828125 C 191.789062 187.257812 189.503906 184.957031 188.136719 186.535156 C 184.070312 191.203125 180.496094 196.289062 177.539062 201.726562 C 176.082031 204.40625 174.785156 207.167969 173.617188 209.988281 C 173.328125 210.695312 173.042969 211.410156 172.769531 212.125 C 172.746094 212.191406 172.335938 213.183594 172.371094 213.203125 L 173.007812 212.613281 L 172.292969 212.292969 C 170.617188 211.550781 168.941406 210.808594 167.265625 210.066406 C 165.375 209.226562 163.722656 212.023438 165.628906 212.867188 Z M 165.625 212.871094 " fill-opacity="1" fill-rule="nonzero"/><path fill="#000000" d="M 150.902344 110.730469 C 168.097656 104.4375 184.851562 96.972656 201.023438 88.390625 C 202.871094 87.410156 201.234375 84.613281 199.386719 85.589844 C 183.457031 94.042969 166.972656 101.40625 150.039062 107.605469 C 148.097656 108.316406 148.9375 111.449219 150.902344 110.730469 Z M 150.902344 110.730469 " fill-opacity="1" fill-rule="nonzero"/><path fill="#000000" d="M 169.722656 146.359375 C 186.914062 140.066406 203.671875 132.601562 219.84375 124.015625 C 221.6875 123.039062 220.050781 120.238281 218.207031 121.21875 C 202.277344 129.671875 185.789062 137.03125 168.859375 143.230469 C 166.914062 143.945312 167.753906 147.078125 169.722656 146.359375 Z M 169.722656 146.359375 " fill-opacity="1" fill-rule="nonzero"/><path fill="#000000" d="M 175.769531 155.28125 C 192.964844 148.988281 209.71875 141.527344 225.890625 132.941406 C 227.734375 131.964844 226.097656 129.164062 224.253906 130.140625 C 208.324219 138.59375 191.839844 145.957031 174.90625 152.15625 C 172.960938 152.867188 173.800781 156.003906 175.769531 155.28125 Z M 175.769531 155.28125 " fill-opacity="1" fill-rule="nonzero"/><path fill="#000000" d="M 192.210938 195.382812 C 209.402344 189.089844 226.160156 181.625 242.332031 173.039062 C 244.175781 172.0625 242.539062 169.261719 240.695312 170.242188 C 224.765625 178.695312 208.277344 186.054688 191.347656 192.253906 C 189.402344 192.96875 190.242188 196.101562 192.210938 195.382812 Z M 192.210938 195.382812 " fill-opacity="1" fill-rule="nonzero"/><path fill="#000000" d="M 200.640625 206.839844 C 217.832031 200.546875 234.589844 193.082031 250.757812 184.496094 C 252.605469 183.519531 250.96875 180.71875 249.121094 181.699219 C 233.195312 190.152344 216.707031 197.511719 199.777344 203.710938 C 197.832031 204.425781 198.671875 207.558594 200.640625 206.839844 Z M 200.640625 206.839844 " fill-opacity="1" fill-rule="nonzero"/><path fill="#000000" d="M 217.082031 241.742188 C 234.273438 235.449219 251.03125 227.984375 267.199219 219.398438 C 269.046875 218.421875 267.410156 215.625 265.5625 216.601562 C 249.632812 225.054688 233.148438 232.417969 216.21875 238.617188 C 214.273438 239.328125 215.113281 242.460938 217.082031 241.742188 Z M 217.082031 241.742188 " fill-opacity="1" fill-rule="nonzero"/><path fill="#000000" d="M 225.503906 252.832031 C 242.699219 246.535156 259.453125 239.074219 275.625 230.488281 C 277.472656 229.511719 275.835938 226.710938 273.988281 227.691406 C 258.058594 236.144531 241.574219 243.503906 224.640625 249.703125 C 222.699219 250.414062 223.535156 253.550781 225.503906 252.832031 Z M 225.503906 252.832031 " fill-opacity="1" fill-rule="nonzero"/><path fill="#000000" d="M 294.777344 65.472656 C 294.492188 65.472656 294.203125 65.398438 293.941406 65.238281 C 293.175781 64.777344 292.929688 63.777344 293.390625 63.011719 L 299.984375 52.121094 C 300.378906 51.464844 300.1875 50.621094 299.542969 50.210938 C 299.222656 50 298.84375 49.929688 298.46875 50.015625 C 298.097656 50.097656 297.78125 50.324219 297.582031 50.644531 L 290.730469 61.570312 C 290.257812 62.332031 289.253906 62.558594 288.5 62.082031 C 287.742188 61.609375 287.511719 60.605469 287.988281 59.847656 L 294.835938 48.921875 C 295.5 47.855469 296.542969 47.125 297.765625 46.851562 C 298.992188 46.578125 300.246094 46.804688 301.300781 47.484375 C 303.425781 48.859375 304.0625 51.628906 302.757812 53.796875 L 296.167969 64.691406 C 295.859375 65.191406 295.328125 65.472656 294.777344 65.472656 Z M 294.777344 65.472656 " fill-opacity="1" fill-rule="nonzero"/><path fill="#5271ff" d="M 296.441406 65.238281 C 293.507812 62.539062 290.070312 60.65625 286.121094 59.617188 C 283.527344 58.933594 280.78125 59.976562 279.335938 62.234375 L 233.339844 134.277344 C 233.339844 134.277344 209.988281 168.933594 197.269531 204.605469 C 196.425781 206.96875 199.144531 208.988281 201.15625 207.480469 C 209.835938 200.980469 227.253906 184.875 250.820312 147.921875 L 297.433594 72.929688 C 298.972656 70.457031 298.585938 67.207031 296.441406 65.230469 Z M 296.441406 65.238281 " fill-opacity="1" fill-rule="nonzero"/><path fill="#000000" d="M 268.792969 127.246094 C 268.160156 127.246094 267.5625 126.871094 267.296875 126.257812 C 266.949219 125.4375 267.335938 124.484375 268.15625 124.136719 C 275.417969 121.050781 292.347656 96.191406 295.859375 81.285156 C 296.652344 77.90625 296.066406 77.167969 296.0625 77.160156 C 290.9375 71.160156 280.839844 66.691406 277.535156 66.648438 C 276.640625 66.636719 275.925781 65.90625 275.9375 65.007812 C 275.949219 64.121094 276.671875 63.410156 277.558594 63.410156 L 277.578125 63.410156 C 281.957031 63.460938 292.921875 68.488281 298.53125 75.058594 C 299.667969 76.390625 299.824219 78.605469 299.019531 82.03125 C 297.554688 88.253906 292.804688 98.324219 286.914062 107.683594 C 283.816406 112.609375 275.910156 124.363281 269.429688 127.117188 C 269.222656 127.207031 269.007812 127.25 268.796875 127.25 Z M 268.792969 127.246094 " fill-opacity="1" fill-rule="nonzero"/><g clip-path="url(#b93a1ea4e0)"><path fill="#000000" d="M 65.828125 134.054688 C 54.527344 134.515625 43.246094 135.523438 32.042969 137.078125 C 28.894531 137.515625 25.757812 137.996094 22.625 138.519531 C 21.679688 138.675781 20.816406 139.484375 20.957031 140.519531 C 21.082031 141.449219 21.9375 142.355469 22.957031 142.1875 C 34.117188 140.328125 45.363281 139.003906 56.648438 138.238281 C 59.816406 138.023438 62.988281 137.855469 66.164062 137.722656 C 67.125 137.683594 67.960938 136.675781 67.832031 135.722656 C 67.691406 134.691406 66.863281 134.011719 65.832031 134.054688 Z M 65.828125 134.054688 " fill-opacity="1" fill-rule="nonzero"/></g><path fill="#000000" d="M 50.703125 112.125 C 56.789062 113.136719 61.984375 115.316406 66.964844 118.957031 C 67.746094 119.523438 69.050781 119.113281 69.484375 118.296875 C 69.992188 117.339844 69.65625 116.386719 68.828125 115.777344 C 63.785156 112.09375 57.84375 109.597656 51.6875 108.574219 C 50.742188 108.417969 49.65625 108.820312 49.417969 109.859375 C 49.21875 110.746094 49.691406 111.953125 50.703125 112.125 Z M 50.703125 112.125 " fill-opacity="1" fill-rule="nonzero"/><path fill="#000000" d="M 68.375 69.777344 C 67.40625 69.554688 66.378906 70.066406 66.109375 71.0625 C 64.445312 77.230469 62.773438 83.402344 61.109375 89.566406 C 59.734375 88.640625 58.355469 87.707031 56.980469 86.777344 C 56.179688 86.238281 54.90625 86.597656 54.460938 87.4375 C 53.96875 88.363281 54.269531 89.378906 55.121094 89.957031 C 57.171875 91.34375 59.230469 92.734375 61.285156 94.121094 C 62.28125 94.792969 63.695312 94.109375 63.992188 93.019531 L 69.660156 72.039062 C 69.910156 71.109375 69.347656 69.996094 68.375 69.773438 Z M 68.375 69.777344 " fill-opacity="1" fill-rule="nonzero"/><path fill="#000000" d="M 353.003906 284.078125 C 346.828125 279.605469 340.402344 275.476562 333.757812 271.734375 C 331.859375 270.664062 329.945312 269.625 328.011719 268.617188 C 327.160156 268.171875 325.972656 268.371094 325.492188 269.273438 C 325.046875 270.121094 325.242188 271.316406 326.152344 271.796875 C 332.910156 275.328125 339.46875 279.238281 345.789062 283.511719 C 347.589844 284.730469 349.375 285.980469 351.144531 287.257812 C 351.925781 287.828125 353.230469 287.417969 353.664062 286.597656 C 354.167969 285.644531 353.839844 284.683594 353.003906 284.078125 Z M 353.003906 284.078125 " fill-opacity="1" fill-rule="nonzero"/><path fill="#000000" d="M 340.667969 261.285156 C 343.578125 261.0625 346.484375 260.835938 349.390625 260.617188 C 350.351562 260.542969 351.277344 259.824219 351.234375 258.777344 C 351.191406 257.84375 350.417969 256.855469 349.390625 256.933594 C 346.484375 257.15625 343.578125 257.378906 340.667969 257.601562 C 339.710938 257.675781 338.78125 258.394531 338.828125 259.441406 C 338.867188 260.375 339.640625 261.363281 340.667969 261.285156 Z M 340.667969 261.285156 " fill-opacity="1" fill-rule="nonzero"/></svg>